<svg width="63" height="63" viewBox="0 0 63 63" fill="none" xmlns="http://www.w3.org/2000/svg">
<g clip-path="url(#clip0_1_93)">
<path d="M31.336 2.5079C47.2546 2.5079 60.1626 15.4147 60.1626 31.3346C60.1626 47.2544 47.2546 60.1612 31.336 60.1612C15.4174 60.1612 2.50931 47.2544 2.50931 31.3346C2.50931 15.4147 15.4174 2.5079 31.336 2.5079Z" stroke="black" stroke-width="5.22222" stroke-miterlimit="10" stroke-linecap="round" stroke-linejoin="round"/>
<path d="M39.2168 43.5143L44.116 28.3966L31.3007 19.0543L18.4829 28.3966L23.3771 43.5143H39.2168Z" stroke="black" stroke-width="5.22222" stroke-miterlimit="10" stroke-linecap="round" stroke-linejoin="round"/>
<path d="M20.3808 4.74789L31.2998 9.40653L42.2164 4.74789" stroke="black" stroke-width="5.22222" stroke-miterlimit="10" stroke-linecap="round" stroke-linejoin="round"/>
<path d="M53.0845 12.6668L52.0354 24.5271L59.8312 33.5009" stroke="black" stroke-width="5.22222" stroke-miterlimit="10" stroke-linecap="round" stroke-linejoin="round"/>
<path d="M55.6774 46.3192L44.1129 48.9825L38.0104 59.1921" stroke="black" stroke-width="5.22222" stroke-miterlimit="10" stroke-linecap="round" stroke-linejoin="round"/>
<path d="M24.5812 59.1921L18.4837 48.9775L6.92295 46.3141" stroke="black" stroke-width="5.22222" stroke-miterlimit="10" stroke-linecap="round" stroke-linejoin="round"/>
<path d="M2.76485 33.4984L10.5668 24.5196L9.51906 12.6668" stroke="black" stroke-width="5.22222" stroke-miterlimit="10" stroke-linecap="round" stroke-linejoin="round"/>
<path d="M31.3002 9.40659V19.0547" stroke="black" stroke-width="5.22222" stroke-miterlimit="10" stroke-linecap="round" stroke-linejoin="round"/>
<path d="M18.4818 28.7712L10.567 24.5186" stroke="black" stroke-width="5.22222" stroke-miterlimit="10" stroke-linecap="round" stroke-linejoin="round"/>
<path d="M23.3776 43.5143L18.4833 48.9776" stroke="black" stroke-width="5.22222" stroke-miterlimit="10" stroke-linecap="round" stroke-linejoin="round"/>
<path d="M39.2167 43.5143L44.1135 48.9826" stroke="black" stroke-width="5.22222" stroke-miterlimit="10" stroke-linecap="round" stroke-linejoin="round"/>
<path d="M52.0335 24.5263L44.115 28.3966" stroke="black" stroke-width="5.22222" stroke-miterlimit="10" stroke-linecap="round" stroke-linejoin="round"/>
</g>
<defs>
<clipPath id="clip0_1_93">
<rect width="62.6667" height="62.6667" fill="white" transform="matrix(-1 0 0 1 62.6667 0)"/>
</clipPath>
</defs>
</svg>
