<svg width="63" height="63" viewBox="0 0 63 63" fill="none" xmlns="http://www.w3.org/2000/svg">
<path d="M58.1997 21.1128C58.1997 17.8737 55.5638 15.2378 52.3247 15.2378C49.5674 15.2378 47.2644 17.153 46.6338 19.7204C43.8608 17.6093 40.4161 16.3403 36.6757 16.3403C36.2115 16.3345 9.53121 15.8508 9.49596 15.8508C6.57021 15.8508 3.91667 18.2301 3.91667 21.1539V22.2976C3.91667 25.2214 6.84633 27.4167 9.77013 27.4167H21.0012C20.4293 29.375 20.1336 30.9808 20.1336 32.7707C20.1336 41.8809 27.5459 49.3402 36.658 49.3402C45.7702 49.3402 53.1825 41.9514 53.1825 32.8393C53.1825 30.7576 52.779 28.7855 52.074 26.9506C52.1583 26.9545 52.2385 26.9819 52.3247 26.9819C55.5638 26.9819 58.1997 24.3519 58.1997 21.1128ZM52.3247 19.1545C53.4057 19.1545 54.283 20.0318 54.283 21.1128C54.283 22.1938 53.4057 23.0711 52.3247 23.0711C51.2437 23.0711 50.3664 22.1938 50.3664 21.1128C50.3664 20.0318 51.2437 19.1545 52.3247 19.1545ZM36.658 45.4705C29.706 45.4705 24.0503 39.8149 24.0503 32.8628C24.0503 30.6812 24.626 28.5212 25.7188 26.6157C26.0654 26.0086 26.0635 25.1724 25.7149 24.5673C25.3663 23.9622 24.7181 23.5 24.0209 23.5H9.77013C9.00638 23.5 7.83333 23.0613 7.83333 22.2976V21.1539C7.83333 20.3882 8.45413 19.7674 9.18263 19.7674C15.3435 19.879 27.4167 20.1062 33.2917 20.2061V25.6405C33.2917 26.7234 34.169 27.5988 35.25 27.5988C36.331 27.5988 37.2083 26.7234 37.2083 25.6405V20.3118C45.0417 20.8719 48.9897 26.2828 48.9897 32.8628C48.9897 39.8149 43.6101 45.4705 36.658 45.4705Z" fill="black"/>
</svg>
