<svg width="63" height="63" viewBox="0 0 63 63" fill="none" xmlns="http://www.w3.org/2000/svg">
<g clip-path="url(#clip0_1_66)">
<path d="M31.3333 33.3801C38.4305 33.3801 44.1849 27.6037 44.1849 20.5286C44.1849 13.4422 38.4197 7.677 31.3333 7.677C24.247 7.677 18.4818 13.4422 18.4818 20.5286C18.4818 27.601 24.2339 33.3801 31.3333 33.3801ZM31.3333 18.2592L33.4917 19.8274L32.6672 22.3645H29.9993L29.175 19.8274L31.3333 18.2592ZM27.5338 28.8817L29.6011 26.0364H33.0657L35.133 28.8817C33.9741 29.4108 32.6881 29.7083 31.3333 29.7083C29.9785 29.7083 28.6925 29.4108 27.5338 28.8817V28.8817ZM38.1023 26.7218L36.0363 23.878L37.1069 20.583L40.4533 19.4957C40.4915 19.8349 40.513 20.1792 40.513 20.5286C40.513 22.9132 39.5985 25.0879 38.1023 26.7218ZM39.3159 16.0044L35.9723 17.0908L33.1693 15.0544V11.5336C35.8019 12.0702 38.0263 13.7382 39.3159 16.0044ZM29.4974 11.5336V15.0544L26.6944 17.091L23.3508 16.0046C24.6404 13.7382 26.8648 12.0702 29.4974 11.5336V11.5336ZM22.1536 20.5286C22.1536 20.1792 22.1752 19.8349 22.2134 19.4957L25.5598 20.583L26.6304 23.878L24.5644 26.7218C23.0682 25.0879 22.1536 22.9132 22.1536 20.5286V20.5286Z" fill="black"/>
<path d="M53.3646 37.052H43.9754L47.1058 33.1424C49.9579 29.5803 51.5286 25.1005 51.5286 20.5286C51.5286 9.39287 42.469 0.333252 31.3333 0.333252C20.1976 0.333252 11.138 9.39287 11.138 20.5286C11.138 25.1005 12.7087 29.5803 15.5609 33.1424L18.6913 37.052H9.30208C8.28815 37.052 7.46614 37.874 7.46614 38.8879V61.164C7.46614 62.1779 8.28815 62.9999 9.30208 62.9999H53.3646C54.3785 62.9999 55.2005 62.1779 55.2005 61.164V38.8879C55.2005 37.874 54.3785 37.052 53.3646 37.052V37.052ZM51.5286 51.9843H47.8568V48.0676H51.5286V51.9843ZM14.8099 20.5286C14.8099 11.4175 22.2223 4.00513 31.3333 4.00513C40.4444 4.00513 47.8568 11.4175 47.8568 20.5286C47.8568 24.3237 46.6059 27.8919 44.2395 30.8474L31.3333 46.9662L18.4272 30.8474C16.0608 27.8919 14.8099 24.3237 14.8099 20.5286ZM11.138 48.0676H14.8099V51.9843H11.138V48.0676ZM11.138 55.6562H16.6458C17.6598 55.6562 18.4818 54.8342 18.4818 53.8202V46.2317C18.4818 45.2178 17.6598 44.3958 16.6458 44.3958H11.138V40.7239H21.6313L29.4974 50.548V59.328H11.138V55.6562ZM33.1693 59.328V50.548L41.0354 40.7239H51.5286V44.3958H46.0208C45.0069 44.3958 44.1849 45.2178 44.1849 46.2317V53.8202C44.1849 54.8342 45.0069 55.6562 46.0208 55.6562H51.5286V59.328H33.1693Z" fill="black"/>
</g>
<defs>
<clipPath id="clip0_1_66">
<rect width="62.6667" height="62.6667" fill="white" transform="translate(0 0.333252)"/>
</clipPath>
</defs>
</svg>
