<svg width="63" height="63" viewBox="0 0 63 63" fill="none" xmlns="http://www.w3.org/2000/svg">
<g clip-path="url(#clip0_1_57)">
<path d="M55.2005 12.8516C55.2005 9.81455 52.7297 7.34375 49.6927 7.34375C48.9758 7.34375 48.2914 7.48291 47.6627 7.73309C47.0256 5.39582 44.8854 3.67187 42.349 3.67187C41.6321 3.67187 40.9476 3.81104 40.3189 4.06122C39.6818 1.72395 37.5416 0 35.0052 0C32.4688 0 30.3286 1.72395 29.6915 4.06122C29.0628 3.81104 28.3783 3.67187 27.6615 3.67187C24.6244 3.67187 22.1536 6.14268 22.1536 9.17969V35.128L16.3396 30.7675C15.3679 30.0166 14.2045 29.6198 12.974 29.6198C9.93695 29.6198 7.46614 32.0906 7.46614 35.1276C7.46614 36.8842 8.31398 38.5482 9.73487 39.5826L18.4814 46.1425C20.7809 47.867 22.1536 50.6126 22.1536 53.487V60.8307C22.1536 61.8447 22.9757 62.6667 23.9896 62.6667H49.6927C50.7066 62.6667 51.5286 61.8447 51.5286 60.8307V54.2172C53.9019 51.577 55.2005 48.1996 55.2005 44.6223V12.8516ZM25.8255 55.3229H33.485C33.2813 55.8976 33.1693 56.5153 33.1693 57.1589C33.1693 57.8024 33.2813 58.4201 33.485 58.9948H25.8255V55.3229ZM38.6771 58.9948C37.6647 58.9948 36.8411 58.1712 36.8411 57.1589C36.8411 56.1465 37.6647 55.3229 38.6771 55.3229H47.8568V58.9948H38.6771ZM51.5286 44.6223C51.5286 47.2339 50.5993 49.7027 48.8973 51.651H25.6919C25.2049 48.3165 23.4095 45.2486 20.6845 43.205C11.6347 36.4177 11.8648 36.59 11.8461 36.5765C11.3952 36.2256 11.138 35.7013 11.138 35.1276C11.138 34.1153 11.9616 33.2917 12.974 33.2917C13.3705 33.2917 13.7476 33.4133 14.0759 33.6596C15.3859 34.6422 21.5803 39.2878 22.888 40.2687C23.4443 40.686 24.1887 40.7532 24.8106 40.4422C25.4326 40.1311 25.8255 39.4954 25.8255 38.8V9.17969C25.8255 8.16735 26.6491 7.34375 27.6615 7.34375C28.6738 7.34375 29.4974 8.16735 29.4974 9.17969V24.112C29.4974 25.1259 30.3194 25.9479 31.3333 25.9479C32.3473 25.9479 33.1693 25.1259 33.1693 24.112V5.50781C33.1693 4.49548 33.9929 3.67187 35.0052 3.67187C36.0175 3.67187 36.8411 4.49548 36.8411 5.50781V24.112C36.8411 25.1259 37.6632 25.9479 38.6771 25.9479C39.691 25.9479 40.513 25.1259 40.513 24.112V9.17969C40.513 8.16735 41.3366 7.34375 42.349 7.34375C43.3613 7.34375 44.1849 8.16735 44.1849 9.17969V24.112C44.1849 25.1259 45.0069 25.9479 46.0208 25.9479C47.0348 25.9479 47.8568 25.1259 47.8568 24.112V12.8516C47.8568 11.8392 48.6804 11.0156 49.6927 11.0156C50.705 11.0156 51.5286 11.8392 51.5286 12.8516V44.6223Z" fill="black"/>
</g>
<defs>
<clipPath id="clip0_1_57">
<rect width="62.6667" height="62.6667" fill="white"/>
</clipPath>
</defs>
</svg>
