<svg width="64" height="64" viewBox="0 0 64 64" fill="none" xmlns="http://www.w3.org/2000/svg">
<g clip-path="url(#clip0_1_48)">
<path d="M57.8255 0.5H6.17448C3.13747 0.5 0.666666 2.9708 0.666666 6.00781V35.3828C0.666666 38.4198 3.13747 40.8906 6.17448 40.8906H26.4922V61.3307C26.4922 62.3447 27.3142 63.1667 28.3281 63.1667H35.6719C36.6858 63.1667 37.5078 62.3447 37.5078 61.3307V40.8906H57.8255C60.8625 40.8906 63.3333 38.4198 63.3333 35.3828V6.00781C63.3333 2.9708 60.8625 0.5 57.8255 0.5ZM33.8359 59.4948H30.1641V40.8906H33.8359V59.4948ZM59.6615 35.3828C59.6615 36.3951 58.8379 37.2187 57.8255 37.2187H6.17448C5.16214 37.2187 4.33854 36.3951 4.33854 35.3828V6.00781C4.33854 4.99548 5.16214 4.17187 6.17448 4.17187H57.8255C58.8379 4.17187 59.6615 4.99548 59.6615 6.00781V35.3828Z" fill="black"/>
<path d="M24.6563 7.84375H9.96875C8.95482 7.84375 8.13281 8.66576 8.13281 9.67969V24.3672C8.13281 25.3811 8.95482 26.2031 9.96875 26.2031H24.6563C25.6702 26.2031 26.4922 25.3811 26.4922 24.3672V9.67969C26.4922 8.66576 25.6702 7.84375 24.6563 7.84375ZM15.4766 22.5313H11.8047V11.5156H15.4766V22.5313ZM22.8203 22.5313H19.1484V11.5156H22.8203V22.5313Z" fill="black"/>
<path d="M54.0312 7.84375H39.3437C38.3298 7.84375 37.5078 8.66576 37.5078 9.67969V24.3672C37.5078 25.3811 38.3298 26.2031 39.3437 26.2031H54.0312C55.0452 26.2031 55.8672 25.3811 55.8672 24.3672V9.67969C55.8672 8.66576 55.0452 7.84375 54.0312 7.84375ZM44.8516 22.5313H41.1797V11.5156H44.8516V22.5313ZM52.1953 22.5313H48.5234V11.5156H52.1953V22.5313Z" fill="black"/>
<path d="M24.6563 29.875H9.96875C8.95482 29.875 8.13281 30.697 8.13281 31.7109C8.13281 32.7249 8.95482 33.5469 9.96875 33.5469H24.6563C25.6702 33.5469 26.4922 32.7249 26.4922 31.7109C26.4922 30.697 25.6702 29.875 24.6563 29.875Z" fill="black"/>
<path d="M54.0312 29.875H39.3437C38.3298 29.875 37.5078 30.697 37.5078 31.7109C37.5078 32.7249 38.3298 33.5469 39.3437 33.5469H54.0312C55.0452 33.5469 55.8672 32.7249 55.8672 31.7109C55.8672 30.697 55.0452 29.875 54.0312 29.875Z" fill="black"/>
<path d="M32 22.5312C33.014 22.5312 33.8359 21.7093 33.8359 20.6953C33.8359 19.6814 33.014 18.8594 32 18.8594C30.986 18.8594 30.1641 19.6814 30.1641 20.6953C30.1641 21.7093 30.986 22.5312 32 22.5312Z" fill="black"/>
<path d="M32 15.1875C33.014 15.1875 33.8359 14.3655 33.8359 13.3516C33.8359 12.3376 33.014 11.5156 32 11.5156C30.986 11.5156 30.1641 12.3376 30.1641 13.3516C30.1641 14.3655 30.986 15.1875 32 15.1875Z" fill="black"/>
</g>
<defs>
<clipPath id="clip0_1_48">
<rect width="62.6667" height="62.6667" fill="white" transform="translate(0.666666 0.5)"/>
</clipPath>
</defs>
</svg>
