<svg width="63" height="64" viewBox="0 0 63 64" fill="none" xmlns="http://www.w3.org/2000/svg">
<g clip-path="url(#clip0_1_46)">
<path d="M49.6927 15.4766H40.513V6.17456C40.513 3.13755 38.0422 0.666748 35.0052 0.666748H12.974C9.93695 0.666748 7.46614 3.13755 7.46614 6.17456V43.0157C7.46614 46.0527 9.93695 48.5235 12.974 48.5235H22.1536V57.8256C22.1536 60.8626 24.6244 63.3334 27.6615 63.3334H49.6927C52.7297 63.3334 55.2005 60.8626 55.2005 57.8256V20.9845C55.2005 17.9474 52.7297 15.4766 49.6927 15.4766ZM11.138 43.0157V6.17456C11.138 5.16222 11.9616 4.33862 12.974 4.33862H35.0052C36.0175 4.33862 36.8411 5.16222 36.8411 6.17456V43.0157C36.8411 44.028 36.0175 44.8516 35.0052 44.8516H12.974C11.9616 44.8516 11.138 44.028 11.138 43.0157ZM51.5286 57.8256C51.5286 58.8379 50.705 59.6615 49.6927 59.6615H27.6615C26.6491 59.6615 25.8255 58.8379 25.8255 57.8256V48.5235H35.0052C38.0422 48.5235 40.513 46.0527 40.513 43.0157V19.1485H49.6927C50.705 19.1485 51.5286 19.9721 51.5286 20.9845V57.8256Z" fill="black"/>
</g>
<defs>
<clipPath id="clip0_1_46">
<rect width="62.6667" height="62.6667" fill="white" transform="translate(0 0.666504)"/>
</clipPath>
</defs>
</svg>
