<svg width="63" height="64" viewBox="0 0 63 64" fill="none" xmlns="http://www.w3.org/2000/svg">
<path d="M30.2671 2.94409C25.1028 2.94409 20.0545 4.47548 15.7606 7.34461C11.4666 10.2137 8.11988 14.2917 6.14359 19.0629C4.16731 23.8341 3.65022 29.0842 4.65772 34.1492C5.66522 39.2143 8.15207 43.8668 11.8038 47.5185C15.4555 51.1703 20.108 53.6571 25.1731 54.6646C30.2381 55.6721 35.4882 55.155 40.2594 53.1787C45.0306 51.2024 49.1086 47.8557 51.9777 43.5618C54.8468 39.2678 56.3782 34.2195 56.3782 29.0552C56.3782 22.1301 53.6272 15.4886 48.7305 10.5919C43.8337 5.69508 37.1922 2.94409 30.2671 2.94409V2.94409ZM49.2969 42.9881H40.9413C40.6151 42.9958 40.2944 43.0742 40.0013 43.2179L35.6982 36.4916C36.0382 36.2219 36.2922 35.8589 36.4293 35.4472L38.9987 27.6556C39.0107 27.5236 39.0107 27.3908 38.9987 27.2588L47.6049 24.8774C47.738 25.1649 47.9302 25.4211 48.1689 25.6294L54.1431 30.5801C53.872 35.0973 52.3216 39.4442 49.6729 43.1134C49.5522 43.0589 49.4262 43.0169 49.2969 42.9881V42.9881ZM19.1333 43.3223H10.9867C8.32266 39.7283 6.72296 35.4576 6.37023 30.9979V30.9979L12.8667 25.5668C13.1566 25.3199 13.3794 25.0038 13.5142 24.6476L21.3684 26.9872C21.3407 27.1882 21.3407 27.392 21.3684 27.593L23.896 35.3845C24.0173 35.737 24.2257 36.0532 24.5018 36.3036L19.6973 43.3641C19.5118 43.3268 19.3223 43.3127 19.1333 43.3223ZM50.4667 15.9788L47.6676 23.0392C47.5854 23.2534 47.5361 23.4787 47.5213 23.7076L38.9987 26.0681C38.8479 25.704 38.6028 25.3867 38.2884 25.149L31.5622 20.3028C31.3597 20.1546 31.1338 20.0416 30.8938 19.9685V11.7592C31.17 11.6968 31.4321 11.5835 31.6667 11.425L38.3929 6.53698C43.3473 8.26904 47.5914 11.588 50.4667 15.9788V15.9788ZM14.9556 10.5268C17.075 8.78671 19.4773 7.42309 22.0578 6.4952V6.4952L28.784 11.3832C29.0197 11.5668 29.2895 11.7017 29.5778 11.7801V19.9685C29.3011 20.0295 29.0388 20.1429 28.8049 20.3028L22.2667 25.1281C22.0043 25.3289 21.7902 25.5858 21.64 25.8801L13.6187 23.4779C13.6003 23.3214 13.5653 23.1673 13.5142 23.0183L10.5062 15.4774C11.7537 13.6297 13.251 11.9637 14.9556 10.5268V10.5268ZM30.2253 53.0774C28.6048 53.0797 26.9882 52.9188 25.4 52.597C24.7942 52.4716 24.1884 52.2836 23.6036 52.1165L21.2222 44.889C21.1159 44.5844 20.9448 44.3065 20.7209 44.0743L25.5671 36.9303C25.7268 36.9477 25.8879 36.9477 26.0476 36.9303H34.2569H34.5493L39.0404 43.949C38.9156 44.129 38.8171 44.326 38.748 44.5339L36.2413 52.2628L35.0716 52.5552C33.4916 52.8896 31.882 53.0646 30.2671 53.0774H30.2253Z" fill="black"/>
<path d="M58.6766 53.5699L40.4939 35.3872L35.0731 40.808L53.2558 58.9907L58.6766 53.5699Z" fill="#ED1C24"/>
<path d="M40.4905 58.9896L58.6732 40.8069L53.2524 35.386L35.0697 53.5687L40.4905 58.9896Z" fill="#ED1C24"/>
</svg>
