<svg width="63" height="63" viewBox="0 0 63 63" fill="none" xmlns="http://www.w3.org/2000/svg">
<g clip-path="url(#clip0_1_40)">
<path d="M26.1992 42.1401C26.1685 42.1203 26.1366 42.1023 26.1038 42.0863L26.0634 42.0703C24.5156 41.29 22.8053 40.8866 21.072 40.8929C19.3386 40.8993 17.6313 41.3153 16.0893 42.1071L16.0551 42.1218C16.0243 42.1372 15.9945 42.1543 15.9657 42.1732C14.2658 43.073 12.8311 44.4023 11.8044 46.0287C10.7777 47.6552 10.1948 49.5221 10.1136 51.4438C10.0324 53.3655 10.4557 55.275 11.3416 56.9822C12.2274 58.6895 13.5449 60.1351 15.1628 61.1751C15.2057 61.2073 15.2511 61.236 15.2987 61.2608C16.8988 62.2573 18.7283 62.8258 20.6115 62.9115C22.4947 62.9972 24.3683 62.5974 26.0524 61.7504L26.0928 61.7345C26.1256 61.7184 26.1575 61.7005 26.1882 61.6806C27.9754 60.7517 29.474 59.3508 30.5212 57.6302C31.5683 55.9096 32.1241 53.935 32.1281 51.9208C32.1281 51.9208 32.1281 51.9122 32.1281 51.9073V51.8926C32.1237 49.8808 31.5689 47.9086 30.5238 46.1895C29.4787 44.4704 27.9832 43.0701 26.1992 42.1401V42.1401ZM21.1137 42.7288C22.2653 42.7284 23.4065 42.946 24.4771 43.3702L22.8542 46.7863H19.3659L17.7001 43.3898C18.7851 42.9527 19.944 42.7283 21.1137 42.7288V42.7288ZM22.8909 48.6222L24.7048 51.9085L22.8909 55.1961H19.3353L17.5226 51.9085L19.3353 48.6222H22.8909ZM16.0734 44.2429L17.7588 47.6785L15.9315 50.9918H11.9805C12.1179 49.6333 12.5565 48.3225 13.2646 47.155C13.9726 45.9874 14.9322 44.9926 16.0734 44.2429V44.2429ZM11.9805 52.8277H15.9327L17.7135 56.0528L15.5018 59.1642C14.5155 58.4023 13.6946 57.4476 13.0892 56.3583C12.4838 55.2689 12.1066 54.0676 11.9805 52.8277V52.8277ZM21.1137 61.0882C19.7066 61.0896 18.3184 60.7654 17.0575 60.1409L19.268 57.032H22.8542L24.471 60.4505C23.402 60.8725 22.263 61.0889 21.1137 61.0882V61.0882ZM26.1013 59.6084L24.4637 56.1459L26.2996 52.8277H30.2469C30.1077 54.1962 29.6629 55.516 28.9454 56.6896C28.2279 57.8632 27.2559 58.8607 26.1013 59.6084V59.6084ZM26.2947 50.9918L24.4588 47.6736L26.1025 44.2135C27.2553 44.9619 28.2255 45.9594 28.9417 47.1325C29.6579 48.3056 30.1018 49.6244 30.2408 50.9918H26.2947ZM63.1089 3.93181V3.86816C63.1096 3.85675 63.1096 3.8453 63.1089 3.83389C63.1089 3.81553 63.1089 3.79717 63.1016 3.77881C63.0942 3.76045 63.1016 3.75188 63.0918 3.73842C63.082 3.72496 63.0845 3.70782 63.0796 3.69191L63.0649 3.64662L63.0502 3.60868C63.0428 3.59032 63.0355 3.57441 63.0269 3.55728L63.0122 3.52668C63.0024 3.50832 62.9914 3.48996 62.9804 3.4716C62.9757 3.46508 62.9716 3.45811 62.9682 3.45079C62.9682 3.45079 62.9437 3.41652 62.9302 3.39938L62.9131 3.37613L62.8837 3.34431C62.835 3.28904 62.7794 3.2401 62.7185 3.19866L62.6708 3.16928L62.6328 3.14847L62.6034 3.13379L62.5508 3.10931C62.4821 3.08105 62.4101 3.06132 62.3366 3.05056L62.295 3.04321H1.26354L1.22804 3.04933C1.13314 3.06272 1.04099 3.09124 0.9551 3.13379L0.925725 3.14847L0.89635 3.16561C0.814909 3.21353 0.74141 3.27381 0.678486 3.34431L0.651559 3.37368L0.633199 3.39816C0.62096 3.4153 0.607496 3.43121 0.596481 3.44957L0.584241 3.47037C0.573225 3.48873 0.56221 3.50709 0.552418 3.52545C0.542626 3.54381 0.542626 3.54626 0.537731 3.55605C0.528742 3.5726 0.520969 3.58978 0.514475 3.60746C0.508356 3.6197 0.504684 3.63316 0.499788 3.6454C0.494892 3.65764 0.488772 3.676 0.483876 3.69069L0.472861 3.7372C0.472861 3.75066 0.465517 3.76412 0.463069 3.77759C0.460621 3.79105 0.456949 3.81431 0.454501 3.83267C0.452054 3.85103 0.454501 3.8547 0.454501 3.86694V44.4497C0.454501 44.4669 0.454501 44.4828 0.461845 44.4987L0.469189 44.5391L0.480205 44.5844C0.483552 44.5984 0.487637 44.6123 0.492444 44.626L0.507132 44.6688C0.513251 44.6823 0.518147 44.697 0.524267 44.7104C0.530387 44.7239 0.536507 44.7361 0.542626 44.7496L0.563434 44.7912L0.585465 44.8267L0.611168 44.8683L0.635647 44.9001L0.66747 44.9405C0.669649 44.9443 0.672561 44.9477 0.676038 44.9503L0.693173 44.9687C0.705413 44.9821 0.718876 44.9968 0.733564 45.0103L0.764163 45.0372L0.804554 45.0703L0.838824 45.0972L0.881663 45.1241L0.918382 45.1462L0.966116 45.1719L1.00039 45.1878L1.06036 45.211L1.08729 45.2208L1.16562 45.2416H1.17664C1.23898 45.255 1.30259 45.2616 1.36635 45.2612H1.48385L1.54015 45.2526L1.57442 45.2453L1.62338 45.2331L1.65888 45.2208L1.70539 45.2049L1.73966 45.1902L1.78372 45.1694L1.81677 45.1511C1.83066 45.1436 1.84414 45.1354 1.85716 45.1266L1.89143 45.1045L1.92692 45.0776L1.95997 45.0507L1.97099 45.0421L10.0956 37.926H53.4629L61.5875 45.0421C61.5905 45.0453 61.5938 45.0482 61.5973 45.0507L61.6304 45.0776L61.6671 45.1045L61.7002 45.1266L61.7405 45.1511L61.7736 45.1682C61.7883 45.1768 61.803 45.1829 61.8189 45.1902L61.8519 45.2037L61.8997 45.222L61.9339 45.2331L61.9841 45.2453L62.0184 45.2526L62.0747 45.2612H62.1922C62.2555 45.2609 62.3186 45.2544 62.3807 45.2416H62.3917L62.4712 45.2208L62.497 45.211L62.5582 45.1878L62.5912 45.1719C62.6071 45.1633 62.6242 45.1559 62.6402 45.1462C62.6527 45.14 62.6646 45.1326 62.6756 45.1241C62.6903 45.1156 62.705 45.107 62.7185 45.0972L62.754 45.0703C62.768 45.06 62.7815 45.049 62.7944 45.0372L62.825 45.0103L62.8654 44.9687L62.8825 44.9503L62.8911 44.9405L62.9229 44.9001L62.9461 44.8683C62.9559 44.8548 62.9645 44.8402 62.9731 44.8267C62.9816 44.8132 62.9878 44.8034 62.9939 44.7912C63 44.779 63.0086 44.7631 63.0159 44.7496L63.0343 44.7104C63.0404 44.697 63.0453 44.6823 63.0502 44.6688C63.0551 44.6553 63.0612 44.6407 63.0661 44.626L63.0771 44.5844C63.0771 44.5697 63.0857 44.555 63.0893 44.5391L63.0967 44.4987L63.104 44.4497V3.95506C63.1102 3.94772 63.1089 3.93915 63.1089 3.93181V3.93181ZM8.8276 36.5858L2.27942 42.3213V5.65636L8.8276 9.95858V36.5858ZM14.3354 36.084H10.6635V32.4121H14.3354V36.084ZM14.3354 30.5762H10.6635V26.9043H14.3354V30.5762ZM14.3354 25.0683H10.6635V21.3965H14.3354V25.0683ZM14.3354 19.5605H10.6635V15.8887H14.3354V19.5605ZM14.3354 14.0527H10.6635V10.3808H14.3354V14.0527ZM19.8432 36.084H16.1714V32.4121H19.8432V36.084ZM19.8432 30.5762H16.1714V26.9043H19.8432V30.5762ZM19.8432 25.0683H16.1714V21.3965H19.8432V25.0683ZM19.8432 19.5605H16.1714V15.8887H19.8432V19.5605ZM19.8432 14.0527H16.1714V10.3808H19.8432V14.0527ZM25.351 36.084H21.6792V32.4121H25.351V36.084ZM25.351 30.5762H21.6792V26.9043H25.351V30.5762ZM25.351 25.0683H21.6792V21.3965H25.351V25.0683ZM25.351 19.5605H21.6792V15.8887H25.351V19.5605ZM25.351 14.0527H21.6792V10.3808H25.351V14.0527ZM30.8589 36.084H27.187V32.4121H30.8589V36.084ZM30.8589 30.5762H27.187V26.9043H30.8589V30.5762ZM30.8589 25.0683H27.187V21.3965H30.8589V25.0683ZM30.8589 19.5605H27.187V15.8887H30.8589V19.5605ZM30.8589 14.0527H27.187V10.3808H30.8589V14.0527ZM36.3667 36.084H32.6948V32.4121H36.3667V36.084ZM36.3667 30.5762H32.6948V26.9043H36.3667V30.5762ZM36.3667 25.0683H32.6948V21.3965H36.3667V25.0683ZM36.3667 19.5605H32.6948V15.8887H36.3667V19.5605ZM36.3667 14.0527H32.6948V10.3808H36.3667V14.0527ZM41.8745 36.084H38.2026V32.4121H41.8745V36.084ZM41.8745 30.5762H38.2026V26.9043H41.8745V30.5762ZM41.8745 25.0683H38.2026V21.3965H41.8745V25.0683ZM41.8745 19.5605H38.2026V15.8887H41.8745V19.5605ZM41.8745 14.0527H38.2026V10.3808H41.8745V14.0527ZM47.3823 36.084H43.7104V32.4121H47.3823V36.084ZM47.3823 30.5762H43.7104V26.9043H47.3823V30.5762ZM47.3823 25.0683H43.7104V21.3965H47.3823V25.0683ZM47.3823 19.5605H43.7104V15.8887H47.3823V19.5605ZM47.3823 14.0527H43.7104V10.3808H47.3823V14.0527ZM52.8901 36.084H49.2182V32.4121H52.8901V36.084ZM52.8901 30.5762H49.2182V26.9043H52.8901V30.5762ZM52.8901 25.0683H49.2182V21.3965H52.8901V25.0683ZM52.8901 19.5605H49.2182V15.8887H52.8901V19.5605ZM52.8901 14.0527H49.2182V10.3808H52.8901V14.0527ZM10.0197 8.54491L4.42992 4.87303H59.1225L53.5327 8.54491H10.0197ZM61.2742 42.3262L54.726 36.5907V9.95858L61.2742 5.65636V42.3262Z" fill="black"/>
</g>
<defs>
<clipPath id="clip0_1_40">
<rect width="62.6667" height="62.6667" fill="white" transform="translate(0.333332 0.333496)"/>
</clipPath>
</defs>
</svg>
