<svg width="63" height="63" viewBox="0 0 63 63" fill="none" xmlns="http://www.w3.org/2000/svg">
<path d="M10.125 9.95817H16C17.083 9.95817 17.9583 9.0828 17.9583 7.99984C17.9583 6.91688 17.083 6.0415 16 6.0415H10.125C9.04204 6.0415 8.16667 6.91688 8.16667 7.99984C8.16667 9.0828 9.04204 9.95817 10.125 9.95817Z" fill="black"/>
<path d="M43.4167 33.4585H39.5V29.5418C39.5 28.4589 38.6246 27.5835 37.5417 27.5835C36.4587 27.5835 35.5833 28.4589 35.5833 29.5418V33.4585H31.6667C30.5837 33.4585 29.7083 34.3339 29.7083 35.4168C29.7083 36.4998 30.5837 37.3752 31.6667 37.3752H35.5833V41.2918C35.5833 42.3748 36.4587 43.2502 37.5417 43.2502C38.6246 43.2502 39.5 42.3748 39.5 41.2918V37.3752H43.4167C44.4996 37.3752 45.375 36.4998 45.375 35.4168C45.375 34.3339 44.4996 33.4585 43.4167 33.4585Z" fill="black"/>
<path d="M53.8859 17.7918H47.3333V16.1175C47.3333 12.7217 44.5701 9.9585 41.1744 9.9585H33.907C30.5132 9.9585 27.75 12.7217 27.75 16.1175V17.7918H23.8333C23.8333 14.5527 21.1974 11.9168 17.9583 11.9168H8.16667C4.92758 11.9168 2.29167 14.5527 2.29167 17.7918V19.7502C2.29167 22.2999 3.93471 24.4541 6.20833 25.2648V29.9041C3.93471 30.7129 2.29167 32.8671 2.29167 35.4168V53.0418C2.29167 56.2809 4.92758 58.9168 8.16667 58.9168H17.9583C21.1974 58.9168 23.8333 56.2809 23.8333 53.0418H53.8859C56.7529 53.0418 59.0833 50.7114 59.0833 47.8444V22.9892C59.0833 20.1222 56.7529 17.7918 53.8859 17.7918ZM31.6667 16.1175C31.6667 14.8817 32.6733 13.8752 33.909 13.8752H41.1763C42.4101 13.8752 43.4167 14.8817 43.4167 16.1175V17.7918H31.6667V16.1175ZM6.20833 17.7918C6.20833 16.7108 7.08567 15.8335 8.16667 15.8335H17.9583C19.0393 15.8335 19.9167 16.7108 19.9167 17.7918V19.7502C19.9167 20.8312 19.0393 21.7085 17.9583 21.7085H8.16667C7.08567 21.7085 6.20833 20.8312 6.20833 19.7502V17.7918ZM16 29.5418H10.125V25.6252H16V29.5418ZM19.9167 53.0418C19.9167 54.1228 19.0393 55.0002 17.9583 55.0002H8.16667C7.08567 55.0002 6.20833 54.1228 6.20833 53.0418V35.4168C6.20833 34.3358 7.08567 33.4585 8.16667 33.4585H17.9583C19.0393 33.4585 19.9167 34.3358 19.9167 35.4168V53.0418ZM55.1667 47.8444C55.1667 48.5494 54.5909 49.1252 53.8859 49.1252H23.8333V35.4168C23.8333 32.8671 22.1903 30.7129 19.9167 29.9022V25.2629C21.5754 24.6715 22.8816 23.3652 23.473 21.7065H53.8859C54.5909 21.7085 55.1667 22.2842 55.1667 22.9892V47.8444Z" fill="black"/>
</svg>
