<svg width="63" height="63" viewBox="0 0 63 63" fill="none" xmlns="http://www.w3.org/2000/svg">
<g clip-path="url(#clip0_1_91)">
<path d="M62.573 34.4265C62.3236 33.6759 61.6217 33.1694 60.8307 33.1694H33.1694V26.6889C34.6784 27.182 36.6629 27.6616 38.6772 27.6616C41.9809 27.6616 44.3937 26.6565 46.727 25.6845C48.8191 24.813 50.7952 23.9897 53.3646 23.9897C56.555 23.9897 59.9988 25.6269 60.0311 25.6423C60.5999 25.9177 61.2706 25.8809 61.8061 25.5451C62.3416 25.2093 62.6667 24.6218 62.6667 23.9897V7.46636C62.6667 6.76234 62.2641 6.12037 61.6303 5.81377C61.46 5.7314 57.4108 3.79449 53.3646 3.79449C50.0609 3.79449 47.6481 4.79961 45.3148 5.77155C43.2227 6.64312 41.2466 7.46636 38.6772 7.46636C36.5683 7.46636 34.3988 6.74936 33.1694 6.26284V5.63043C33.1694 4.6165 32.3474 3.79449 31.3335 3.79449C30.3195 3.79449 29.4975 4.6165 29.4975 5.63043V33.1694H1.83618C1.04526 33.1694 0.343321 33.6759 0.0938795 34.4265C-0.15544 35.177 0.103916 36.003 0.737679 36.4763L30.235 58.5074C30.5372 58.7332 30.9331 58.8724 31.3336 58.8724C31.7097 58.8724 32.1082 58.7494 32.4322 58.5074L61.9295 36.4763C62.563 36.003 62.8224 35.1772 62.573 34.4265V34.4265ZM38.6771 11.1382C41.9808 11.1382 44.3935 10.1331 46.7269 9.16116C48.819 8.28959 50.7951 7.46636 53.3645 7.46636C55.4899 7.46636 57.7279 8.19302 58.9947 8.6826V21.3106C57.4501 20.8112 55.4069 20.3177 53.3645 20.3177C50.0608 20.3177 47.648 21.3229 45.3147 22.2948C43.2226 23.1664 41.2465 23.9896 38.6771 23.9896C36.5686 23.9896 34.3996 23.273 33.1693 22.7861V10.1655C34.6784 10.6587 36.6628 11.1382 38.6771 11.1382V11.1382ZM29.4974 36.8412V44.2328C26.0106 44.4114 22.7653 45.1019 19.9714 46.2588L7.36233 36.8412H29.4974ZM29.4974 53.3738L23.5095 48.9015C25.3454 48.3657 27.3628 48.0323 29.4974 47.9107V53.3738ZM33.1693 47.9107C35.3037 48.0323 37.3213 48.3657 39.1572 48.9015L33.1693 53.3738V47.9107ZM42.6954 46.2588C39.9015 45.1019 36.6562 44.4115 33.1694 44.2328V36.8412H55.3046L42.6954 46.2588Z" fill="black"/>
</g>
<defs>
<clipPath id="clip0_1_91">
<rect width="62.6667" height="62.6667" fill="white"/>
</clipPath>
</defs>
</svg>
