<svg width="63" height="63" viewBox="0 0 63 63" fill="none" xmlns="http://www.w3.org/2000/svg">
<path d="M55.1667 29.5418H50.825C49.8909 19.4055 41.803 11.3176 31.6667 10.3854V6.04183C31.6667 4.95887 30.7893 4.0835 29.7083 4.0835C28.6273 4.0835 27.75 4.95887 27.75 6.04183V10.4207C25.3256 10.6478 23.0265 11.2765 20.9056 12.2537C19.5935 11.0904 17.8878 10.36 16 10.36C11.9012 10.36 8.56813 13.693 8.56813 17.7918C8.56813 19.6797 9.29663 21.3854 10.4618 22.6975C9.48267 24.8164 8.856 27.1174 8.62883 29.5418H4.25C3.169 29.5418 2.29167 30.4172 2.29167 31.5002C2.29167 32.5831 3.169 33.4585 4.25 33.4585H8.59163C9.52575 43.5948 17.6137 51.6827 27.75 52.6149V56.9585C27.75 58.0415 28.6273 58.9168 29.7083 58.9168C30.7893 58.9168 31.6667 58.0415 31.6667 56.9585V52.6149C41.803 51.6808 49.8909 43.5948 50.825 33.4585H55.1667C56.2477 33.4585 57.125 32.5831 57.125 31.5002C57.125 30.4172 56.2477 29.5418 55.1667 29.5418ZM46.8888 29.5418H37.3928C36.6761 26.7297 34.4788 24.5324 31.6667 23.8157V14.3217C39.641 15.2245 45.984 21.5675 46.8888 29.5418ZM16 14.2766C17.9388 14.2766 19.5152 15.855 19.5152 17.7918C19.5152 19.7286 17.9388 21.307 16 21.307C14.0613 21.307 12.4848 19.7286 12.4848 17.7918C12.4848 15.855 14.0613 14.2766 16 14.2766ZM13.7616 24.8418C14.4725 25.069 15.2147 25.2237 16 25.2237C20.0988 25.2237 23.4319 21.8906 23.4319 17.7918C23.4319 17.0065 23.2772 16.2663 23.05 15.5554C24.5246 14.9346 26.1011 14.5195 27.75 14.3315V23.8176C24.9378 24.5344 22.7406 26.7316 22.0238 29.5438H12.5377C12.7257 27.8949 13.1428 26.3165 13.7616 24.8418ZM12.5279 33.4585H22.0238C22.7406 36.2707 24.9378 38.4679 27.75 39.1847V48.6806C19.7757 47.7759 13.4326 41.4328 12.5279 33.4585ZM31.6667 48.6787V39.1827C34.4788 38.466 36.6761 36.2687 37.3928 33.4565H46.8888C45.984 41.4328 39.641 47.7759 31.6667 48.6787Z" fill="black"/>
</svg>
