<svg width="63" height="63" viewBox="0 0 63 63" fill="none" xmlns="http://www.w3.org/2000/svg">
<g clip-path="url(#clip0_1_72)">
<path d="M31.3333 18.4818C24.247 18.4818 18.4818 24.247 18.4818 31.3334C18.4818 38.4044 24.2325 44.1849 31.3333 44.1849C38.4305 44.1849 44.1849 38.4083 44.1849 31.3334C44.1849 24.247 38.4197 18.4818 31.3333 18.4818ZM39.3159 26.8093L35.9723 27.8956L33.1693 25.8592V22.3384C35.8019 22.875 38.0263 24.543 39.3159 26.8093ZM29.9995 33.1693L29.1751 30.6322L31.3333 29.064L33.4917 30.6322L32.6672 33.1693H29.9995ZM29.4974 22.3384V25.8592L26.6944 27.8956L23.3508 26.8093C24.6404 24.543 26.8648 22.875 29.4974 22.3384V22.3384ZM22.1536 31.3334C22.1536 30.9841 22.1752 30.6398 22.2133 30.3005L25.5598 31.3878L26.6304 34.6829L24.5644 37.5266C23.0682 35.8927 22.1536 33.718 22.1536 31.3334V31.3334ZM27.5338 39.6865L29.6011 36.8412H33.0657L35.133 39.6865C33.9741 40.2156 32.6881 40.5131 31.3333 40.5131C29.9785 40.5131 28.6925 40.2156 27.5338 39.6865ZM38.1023 37.5266L36.0363 34.6829L37.1069 31.3878L40.4534 30.3005C40.4916 30.6398 40.513 30.9841 40.513 31.3334C40.513 33.718 39.5985 35.8927 38.1023 37.5266V37.5266Z" fill="black"/>
<path d="M60.8307 29.4974H55.1306C54.2364 17.7975 44.8692 8.43026 33.1693 7.53603V1.83594C33.1693 0.82201 32.3473 0 31.3333 0C30.3194 0 29.4974 0.82201 29.4974 1.83594V7.53603C17.7975 8.43026 8.43026 17.7975 7.53603 29.4974H1.83594C0.82201 29.4974 0 30.3194 0 31.3333C0 32.3473 0.82201 33.1693 1.83594 33.1693H7.53603C8.43026 44.8692 17.7975 54.2364 29.4974 55.1306V60.8307C29.4974 61.8447 30.3194 62.6667 31.3333 62.6667C32.3473 62.6667 33.1693 61.8447 33.1693 60.8307V55.1306C44.8692 54.2364 54.2364 44.8692 55.1306 33.1693H60.8307C61.8447 33.1693 62.6667 32.3473 62.6667 31.3333C62.6667 30.3194 61.8447 29.4974 60.8307 29.4974ZM33.1693 51.4443V49.6927C33.1693 48.6788 32.3473 47.8568 31.3333 47.8568C30.3194 47.8568 29.4974 48.6788 29.4974 49.6927V51.4443C19.8238 50.5683 12.0983 42.8428 11.2224 33.1693H12.974C13.9879 33.1693 14.8099 32.3473 14.8099 31.3333C14.8099 30.3194 13.9879 29.4974 12.974 29.4974H11.2224C12.0983 19.8238 19.8238 12.0983 29.4974 11.2224V12.974C29.4974 13.9879 30.3194 14.8099 31.3333 14.8099C32.3473 14.8099 33.1693 13.9879 33.1693 12.974V11.2224C42.8428 12.0983 50.5683 19.8238 51.4443 29.4974H49.6927C48.6788 29.4974 47.8568 30.3194 47.8568 31.3333C47.8568 32.3473 48.6788 33.1693 49.6927 33.1693H51.4443C50.5683 42.8428 42.8428 50.5683 33.1693 51.4443Z" fill="black"/>
<path d="M5.63021 14.8099C6.64413 14.8099 7.46614 13.9879 7.46614 12.974V7.46619H12.974C13.9879 7.46619 14.8099 6.64418 14.8099 5.63025C14.8099 4.61632 13.9879 3.79431 12.974 3.79431H5.63021C4.61628 3.79431 3.79427 4.61632 3.79427 5.63025V12.974C3.79427 13.9879 4.61628 14.8099 5.63021 14.8099Z" fill="black"/>
<path d="M12.974 55.2006H7.46614V49.6927C7.46614 48.6788 6.64413 47.8568 5.63021 47.8568C4.61628 47.8568 3.79427 48.6788 3.79427 49.6927V57.0365C3.79427 58.0504 4.61628 58.8724 5.63021 58.8724H12.974C13.9879 58.8724 14.8099 58.0504 14.8099 57.0365C14.8099 56.0226 13.9879 55.2006 12.974 55.2006Z" fill="black"/>
<path d="M57.0365 47.8568C56.0225 47.8568 55.2005 48.6788 55.2005 49.6927V55.2006H49.6927C48.6788 55.2006 47.8568 56.0226 47.8568 57.0365C47.8568 58.0504 48.6788 58.8724 49.6927 58.8724H57.0365C58.0504 58.8724 58.8724 58.0504 58.8724 57.0365V49.6927C58.8724 48.6788 58.0504 47.8568 57.0365 47.8568Z" fill="black"/>
<path d="M49.6927 7.46619H55.2005V12.974C55.2005 13.9879 56.0225 14.8099 57.0365 14.8099C58.0504 14.8099 58.8724 13.9879 58.8724 12.974V5.63025C58.8724 4.61632 58.0504 3.79431 57.0365 3.79431H49.6927C48.6788 3.79431 47.8568 4.61632 47.8568 5.63025C47.8568 6.64418 48.6788 7.46619 49.6927 7.46619Z" fill="black"/>
</g>
<defs>
<clipPath id="clip0_1_72">
<rect width="62.6667" height="62.6667" fill="white"/>
</clipPath>
</defs>
</svg>
