<svg width="63" height="64" viewBox="0 0 63 64" fill="none" xmlns="http://www.w3.org/2000/svg">
<path d="M27.75 6.70849L27.75 11.0501C17.6137 11.9842 9.52575 20.0722 8.59358 30.2085L4.25 30.2085C3.16704 30.2085 2.29167 31.0858 2.29167 32.1668C2.29167 33.2478 3.16704 34.1252 4.25 34.1252L8.62883 34.1252C8.856 36.5496 9.48462 38.8487 10.4618 40.9695C9.29858 42.2816 8.56812 43.9873 8.56812 45.8752C8.56812 49.974 11.9012 53.307 16 53.307C17.8878 53.307 19.5935 52.5785 20.9056 51.4133C23.0245 52.3925 25.3256 53.0192 27.75 53.2463L27.75 57.6252C27.75 58.7062 28.6254 59.5835 29.7083 59.5835C30.7913 59.5835 31.6667 58.7062 31.6667 57.6252L31.6667 53.2835C41.803 52.3494 49.8909 44.2615 50.8231 34.1252L55.1667 34.1252C56.2496 34.1252 57.125 33.2478 57.125 32.1668C57.125 31.0858 56.2496 30.2085 55.1667 30.2085L50.8231 30.2085C49.889 20.0722 41.803 11.9842 31.6667 11.0501L31.6667 6.70849C31.6667 5.62749 30.7913 4.75016 29.7083 4.75016C28.6254 4.75016 27.75 5.62749 27.75 6.70849ZM27.75 14.9864L27.75 24.4823C24.9378 25.1991 22.7406 27.3963 22.0238 30.2085L12.5298 30.2085C13.4326 22.2342 19.7757 15.8911 27.75 14.9864ZM12.4848 45.8752C12.4848 43.9364 14.0632 42.36 16 42.36C17.9368 42.36 19.5152 43.9364 19.5152 45.8752C19.5152 47.8139 17.9368 49.3904 16 49.3904C14.0632 49.3904 12.4848 47.8139 12.4848 45.8752ZM23.05 48.1135C23.2772 47.4027 23.4319 46.6605 23.4319 45.8752C23.4319 41.7764 20.0988 38.4433 16 38.4433C15.2147 38.4433 14.4745 38.598 13.7636 38.8252C13.1428 37.3505 12.7276 35.7741 12.5396 34.1252L22.0258 34.1252C22.7425 36.9373 24.9398 39.1346 27.752 39.8513L27.752 49.3375C26.103 49.1495 24.5246 48.7324 23.05 48.1135ZM31.6667 49.3473L31.6667 39.8513C34.4788 39.1346 36.6761 36.9373 37.3928 34.1252L46.8888 34.1252C45.984 42.0995 39.641 48.4425 31.6667 49.3473ZM46.8868 30.2085L37.3909 30.2085C36.6741 27.3963 34.4769 25.1991 31.6647 24.4823L31.6647 14.9864C39.641 15.8911 45.984 22.2342 46.8868 30.2085Z" fill="#F50000"/>
</svg>
