<svg width="63" height="63" viewBox="0 0 63 63" fill="none" xmlns="http://www.w3.org/2000/svg">
<path fill-rule="evenodd" clip-rule="evenodd" d="M59.5729 17.3825C58.9071 17.3825 57.7928 18.2873 57.6988 18.3402C56.561 18.9943 55.2626 19.3409 53.9427 19.3409C51.3773 19.3409 49.0077 18.0543 47.6075 15.8962C47.0161 14.9895 45.8058 14.729 44.8991 15.3204C43.9924 15.9099 43.7339 17.1221 44.3234 18.0308C46.4482 21.3031 50.0456 23.2575 53.9447 23.2575C55.2 23.2575 56.4376 23.0284 57.6165 22.6289V34.1106C57.6165 35.1916 56.7372 36.069 55.6582 36.069H7.67708C6.59804 36.069 5.71875 35.1916 5.71875 34.1106V33.7033C5.71875 32.4382 6.83108 30.989 8.05112 30.66L20.8038 27.2271C23.0715 26.618 26.4301 25.2061 28.4472 24.0115L39.028 17.7625C39.9582 17.2122 40.2677 16.0117 39.7174 15.0795C39.1671 14.1474 37.9647 13.8399 37.0345 14.3902L26.4536 20.6412C24.7518 21.6478 21.7007 22.9325 19.7874 23.4455L7.03279 26.8785C4.09921 27.6677 1.80208 30.6679 1.80208 33.7033V34.1106C1.80208 37.3497 4.438 39.9856 7.67708 39.9856H9.39062V43.0073C9.39062 44.0903 10.268 44.9657 11.349 44.9657C12.43 44.9657 13.3073 44.0903 13.3073 43.0073V39.9856H16.2448V43.0073C16.2448 44.0903 17.1221 44.9657 18.2031 44.9657C19.2841 44.9657 20.1615 44.0903 20.1615 43.0073V39.9856H22.8542V43.0073C22.8542 44.0903 23.7315 44.9657 24.8125 44.9657C25.8935 44.9657 26.7708 44.0903 26.7708 43.0073V39.9856H42.9878V43.0073C42.9878 44.0903 43.8651 44.9657 44.9461 44.9657C46.0271 44.9657 46.9045 44.0903 46.9045 43.0073V39.9856H49.5972V43.0073C49.5972 44.0903 50.4745 44.9657 51.5555 44.9657C52.6365 44.9657 53.5138 44.0903 53.5138 43.0073V39.9856H55.6562C58.8953 39.9856 61.5312 37.3497 61.5312 34.1106V19.3409C61.5312 18.2579 60.6539 17.3825 59.5729 17.3825Z" fill="#F50000"/>
</svg>
