<svg width="63" height="63" viewBox="0 0 63 63" fill="none" xmlns="http://www.w3.org/2000/svg">
<g clip-path="url(#clip0_1_7)">
<path d="M53.8203 7.46631H9.51302C4.45134 7.46631 0.333333 11.5843 0.333333 16.646V46.021C0.333333 51.0827 4.45134 55.2007 9.51302 55.2007H53.8203C58.882 55.2007 63 51.0827 63 46.021V16.646C63 11.5843 58.882 7.46631 53.8203 7.46631ZM59.3281 16.646V29.4976H55.6562V16.646C55.6562 15.6321 54.8342 14.8101 53.8203 14.8101H44.5182V11.1382H53.8203C56.8573 11.1382 59.3281 13.609 59.3281 16.646ZM11.349 25.8257H15.1432V36.8413H11.349V25.8257ZM11.349 40.5132H16.9792C17.9931 40.5132 18.8151 39.6912 18.8151 38.6772V23.9897C18.8151 22.9758 17.9931 22.1538 16.9792 22.1538H11.349V18.4819H29.8307V22.3385C25.6458 23.1914 22.487 26.9003 22.487 31.3335C22.487 35.7667 25.6458 39.4755 29.8307 40.3285V44.1851H11.349V40.5132ZM22.487 14.8101V11.1382H40.8464V14.8101H22.487ZM29.8307 36.5255C27.6938 35.7677 26.1589 33.7269 26.1589 31.3335C26.1589 28.94 27.6938 26.8993 29.8307 26.1415V36.5255ZM33.5026 26.1415C35.6395 26.8993 37.1745 28.94 37.1745 31.3335C37.1745 33.7269 35.6395 35.7677 33.5026 36.5255V26.1415ZM40.8464 47.8569V51.5288H22.487V47.8569H40.8464ZM33.5026 44.1851V40.3285C37.6876 39.4756 40.8464 35.7667 40.8464 31.3335C40.8464 26.9003 37.6876 23.1915 33.5026 22.3385V18.4819H51.9844V22.1538H46.3542C45.3402 22.1538 44.5182 22.9758 44.5182 23.9897V38.6772C44.5182 39.6912 45.3402 40.5132 46.3542 40.5132H51.9844V44.1851H33.5026ZM51.9844 36.8413H48.1901V25.8257H51.9844V36.8413ZM9.51302 11.1382H18.8151V14.8101H9.51302C8.49909 14.8101 7.67708 15.6321 7.67708 16.646V29.4976H4.00521V16.646C4.00521 13.609 6.47601 11.1382 9.51302 11.1382ZM4.00521 46.021V33.1694H7.67708V46.021C7.67708 47.0349 8.49909 47.8569 9.51302 47.8569H18.8151V51.5288H9.51302C6.47601 51.5288 4.00521 49.058 4.00521 46.021ZM53.8203 51.5288H44.5182V47.8569H53.8203C54.8342 47.8569 55.6562 47.0349 55.6562 46.021V33.1694H59.3281V46.021C59.3281 49.058 56.8573 51.5288 53.8203 51.5288Z" fill="black"/>
</g>
<defs>
<clipPath id="clip0_1_7">
<rect width="62.6667" height="62.6667" fill="white" transform="translate(0.333332)"/>
</clipPath>
</defs>
</svg>
