<svg width="63" height="64" viewBox="0 0 63 64" fill="none" xmlns="http://www.w3.org/2000/svg">
<g clip-path="url(#clip0_1_2)">
<path d="M50.8072 25.3908L54.7677 20.6708C55.4194 19.8941 55.3182 18.7361 54.5413 18.0843L48.9158 13.3639C48.5427 13.0509 48.061 12.8988 47.5757 12.9414C47.0906 12.9839 46.6423 13.2171 46.3293 13.5902L42.3723 18.306C39.6678 16.9429 36.6711 16.078 33.5025 15.8359V11.8491H35.3384C38.3754 11.8491 40.8462 9.37832 40.8462 6.34131C40.8462 3.3043 38.3756 0.833496 35.3385 0.833496H27.9948C24.9578 0.833496 22.487 3.3043 22.487 6.34131C22.487 9.37832 24.9578 11.8491 27.9948 11.8491H29.8307V15.8357C26.6621 16.0779 23.6654 16.9426 20.9609 18.3057L17.004 13.5901C16.691 13.217 16.2427 12.9836 15.7575 12.9413C15.2728 12.8988 14.7905 13.0508 14.4174 13.3638L8.79174 18.0842C8.41868 18.3972 8.18527 18.8455 8.14292 19.3307C8.10045 19.8157 8.25247 20.2977 8.56543 20.6708L12.526 25.3908C9.55843 29.3691 7.79948 34.2993 7.79948 39.633C7.79948 52.7933 18.5063 63.5002 31.6667 63.5002C44.827 63.5002 55.5339 52.7933 55.5339 39.633C55.5339 34.2993 53.7749 29.369 50.8072 25.3908ZM26.1589 6.34131C26.1589 5.32897 26.9825 4.50537 27.9948 4.50537H35.3385C36.3509 4.50537 37.1745 5.32897 37.1745 6.34131C37.1745 7.35364 36.3509 8.17725 35.3385 8.17725H27.9948C26.9825 8.17725 26.1589 7.35364 26.1589 6.34131ZM47.9621 17.3567L50.7747 19.717L48.3608 22.5938C47.4865 21.737 46.5472 20.9463 45.5503 20.2308L47.9621 17.3567ZM15.3713 17.3567L17.7829 20.2308C16.786 20.9462 15.8468 21.7369 14.9725 22.5938L12.5585 19.717L15.3713 17.3567ZM31.6667 59.8283C20.531 59.8283 11.4714 50.7687 11.4714 39.633C11.4714 28.4973 20.531 19.4377 31.6667 19.4377C42.8024 19.4377 51.862 28.4973 51.862 39.633C51.862 50.7687 42.8024 59.8283 31.6667 59.8283Z" fill="black"/>
<path d="M49.9269 35.8384C49.9269 33.814 48.2795 32.1665 46.255 32.1665C44.5317 32.1665 43.0923 33.3635 42.6982 34.9681C40.9651 33.6487 38.8121 32.8556 36.4744 32.8556C36.1843 32.8519 19.5091 32.5496 19.4871 32.5496C17.6585 32.5496 16 34.0367 16 35.8641V36.5789C16 38.4062 17.831 39.7783 19.6584 39.7783H26.6778C26.3204 41.0023 26.1356 42.0059 26.1356 43.1246C26.1356 48.8185 30.7683 53.4805 36.4634 53.4805C42.1584 53.4805 46.7911 48.8625 46.7911 43.1674C46.7911 41.8664 46.539 40.6338 46.0984 39.487C46.151 39.4894 46.2012 39.5066 46.255 39.5066C48.2795 39.5066 49.9269 37.8628 49.9269 35.8384ZM46.255 34.6144C46.9306 34.6144 47.479 35.1628 47.479 35.8384C47.479 36.514 46.9306 37.0623 46.255 37.0623C45.5794 37.0623 45.0311 36.514 45.0311 35.8384C45.0311 35.1628 45.5794 34.6144 46.255 34.6144ZM36.4634 51.062C32.1183 51.062 28.5835 47.5272 28.5835 43.1821C28.5835 41.8186 28.9434 40.4686 29.6263 39.2777C29.843 38.8983 29.8417 38.3756 29.6239 37.9974C29.406 37.6192 29.0009 37.3304 28.5652 37.3304H19.6584C19.1811 37.3304 18.4479 37.0562 18.4479 36.5789V35.8641C18.4479 35.3855 18.8359 34.9975 19.2912 34.9975C23.1418 35.0673 30.6875 35.2093 34.3594 35.2717V38.6682C34.3594 39.345 34.9077 39.8921 35.5833 39.8921C36.259 39.8921 36.8073 39.345 36.8073 38.6682V35.3378C41.7031 35.6878 44.1706 39.0696 44.1706 43.1821C44.1706 47.5272 40.8084 51.062 36.4634 51.062Z" fill="black"/>
</g>
<defs>
<clipPath id="clip0_1_2">
<rect width="62.6667" height="62.6667" fill="white" transform="translate(0.333332 0.833008)"/>
</clipPath>
</defs>
</svg>
