<svg width="63" height="63" viewBox="0 0 63 63" fill="none" xmlns="http://www.w3.org/2000/svg">
<g clip-path="url(#clip0_1_19)">
<path d="M62.7992 31.3776C62.7934 28.5793 62.0209 25.836 60.5657 23.4458C59.1105 21.0556 57.0281 19.1099 54.5449 17.8198C54.5117 17.7976 54.477 17.778 54.4408 17.7611C54.4225 17.7523 54.4037 17.7445 54.3845 17.7378C52.2333 16.6513 49.8555 16.0893 47.4455 16.0978C45.0355 16.1063 42.6618 16.6851 40.5183 17.7868C40.5012 17.7941 40.484 17.8003 40.4681 17.8088C40.4337 17.8255 40.4006 17.8448 40.369 17.8664C38.0022 19.1126 36.0037 20.9579 34.573 23.218C33.1423 25.4782 32.3294 28.074 32.2156 30.7465C32.1018 33.4189 32.6909 36.0745 33.9242 38.4481C35.1576 40.8217 36.9919 42.8302 39.2442 44.2733C39.2956 44.3134 39.3509 44.3483 39.4094 44.3773C41.6342 45.7667 44.1792 46.5599 46.7994 46.6806C49.4196 46.8013 52.0268 46.2454 54.3698 45.0664L54.4249 45.0431C54.4619 45.0258 54.4975 45.0058 54.5314 44.9832C57.018 43.6944 59.1036 41.7484 60.5613 39.3569C62.0191 36.9654 62.7931 34.22 62.7992 31.4192V31.3776ZM47.4998 17.9337C49.3296 17.9329 51.1401 18.3078 52.8191 19.0352L50.2243 24.4941H44.7691L42.1058 19.0671C43.8062 18.3198 45.6436 17.9346 47.501 17.9361L47.4998 17.9337ZM50.261 26.3264L53.059 31.3972L50.261 36.4693H44.7385L41.9479 31.3997L44.7446 26.3288L50.261 26.3264ZM40.4791 19.9177L43.1621 25.3864L40.347 30.4829H34.0693C34.2175 28.3383 34.8767 26.2602 35.9918 24.4223C37.1068 22.5843 38.6455 21.0398 40.4791 19.9177V19.9177ZM34.0693 32.3189H40.3567L43.1192 37.3285L39.5942 42.2868C38.0004 41.1304 36.6796 39.6385 35.725 37.9162C34.7704 36.194 34.2052 34.2833 34.0693 32.3189V32.3189ZM47.501 44.8632C45.2836 44.8677 43.0998 44.3209 41.1462 43.2721L44.6712 38.3126H50.2231L52.8081 43.7776C51.1314 44.4971 49.3255 44.8665 47.501 44.8632V44.8632ZM54.4408 42.933L51.835 37.4252L54.6501 32.3225H60.9315C60.7816 34.4825 60.1134 36.5745 58.9836 38.4214C57.8537 40.2684 56.2955 41.8159 54.4408 42.933ZM54.6501 30.4829L51.835 25.3815L54.4519 19.8736C56.3041 20.9918 57.8598 22.5395 58.9874 24.386C60.1151 26.2324 60.7815 28.3233 60.9303 30.4817L54.6501 30.4829ZM51.66 49.8973C51.5411 49.8781 51.4195 49.8826 51.3022 49.9104C51.185 49.9382 51.0744 49.9888 50.9767 50.0594C50.8791 50.13 50.7963 50.2192 50.7332 50.3218C50.67 50.4244 50.6277 50.5384 50.6086 50.6574C50.1949 53.2277 49.2427 54.9658 47.7764 55.8409C46.2428 56.7552 44.1045 56.7442 41.4118 55.8054C41.1818 55.7252 40.9294 55.7397 40.7101 55.8456C40.4907 55.9515 40.3225 56.1403 40.2423 56.3702C40.1621 56.6002 40.1766 56.8527 40.2825 57.072C40.3885 57.2913 40.5772 57.4596 40.8072 57.5397C42.364 58.0815 43.7867 58.3529 45.0751 58.3537C46.4521 58.3537 47.6699 58.0416 48.7152 57.4173C50.6735 56.2521 51.9158 54.0759 52.4189 50.9499C52.4577 50.7098 52.3996 50.464 52.2573 50.2666C52.115 50.0692 51.9002 49.9364 51.66 49.8973V49.8973ZM36.008 47.808C33.7621 45.6426 31.7469 43.25 29.9947 40.6687L30.2774 40.5169C30.4919 40.4014 30.6516 40.2054 30.7215 39.972C30.7914 39.7387 30.7657 39.4872 30.6501 39.2728C30.5346 39.0584 30.3386 38.8986 30.1053 38.8288C29.8719 38.7589 29.6204 38.7845 29.406 38.9001L28.9923 39.1228C28.6659 38.5941 28.3477 38.0576 28.0376 37.5133L28.5015 37.2685C28.7165 37.1527 28.8768 36.9561 28.9469 36.7221C29.017 36.4881 28.9913 36.2358 28.8754 36.0207C28.7595 35.8057 28.5629 35.6454 28.3289 35.5753C28.0949 35.5052 27.8426 35.5309 27.6276 35.6468L27.1613 35.9063L26.0364 33.8109C26.2196 33.6815 26.349 33.4895 26.4003 33.2712C26.4517 33.0529 26.4213 32.8233 26.315 32.6259C26.2086 32.4284 26.0337 32.2768 25.8232 32.1994C25.6127 32.1221 25.3812 32.1246 25.1723 32.2062L23.6803 29.4389L23.0683 27.1354C22.624 25.4745 20.7979 24.488 19.1198 24.4586L14.907 5.55211C14.8822 5.43305 14.834 5.3201 14.7652 5.21983C14.6964 5.11956 14.6083 5.03396 14.5061 4.968C14.4039 4.90205 14.2897 4.85706 14.17 4.83564C14.0503 4.81422 13.9275 4.8168 13.8088 4.84324C13.6901 4.86967 13.5778 4.91943 13.4785 4.98962C13.3792 5.05981 13.2948 5.14904 13.2302 5.25211C13.1657 5.35519 13.1223 5.47006 13.1025 5.59006C13.0828 5.71006 13.087 5.83279 13.1151 5.95112L18.5703 30.456L16.1003 31.4217C15.299 31.4166 14.5159 31.1823 13.8435 30.7463C13.1712 30.3104 12.6377 29.691 12.3061 28.9615C12.2963 28.9395 12.2853 28.9175 12.2742 28.8967L2.05419 10.5226C1.99569 10.4172 1.91699 10.3243 1.82258 10.2493C1.72818 10.1742 1.61992 10.1185 1.50399 10.0853C1.38807 10.0522 1.26674 10.0421 1.14693 10.0558C1.02713 10.0695 0.911198 10.1067 0.805757 10.1652C0.700317 10.2237 0.607432 10.3024 0.532408 10.3968C0.457383 10.4912 0.401687 10.5995 0.368499 10.7154C0.335312 10.8313 0.325284 10.9527 0.338986 11.0725C0.352689 11.1923 0.389855 11.3082 0.448361 11.4136L7.62443 24.3227L5.24138 27.6641L5.22914 27.6813C2.55969 31.4755 1.54136 36.4938 5.28789 39.1363L27.6778 54.9352C28.6863 55.6475 30.0669 55.9033 31.3607 55.9033C31.9255 55.9035 32.4893 55.8556 33.046 55.7601C34.0925 55.579 35.9958 55.0637 36.9872 53.6537C36.9872 53.6476 36.9945 53.6414 36.9994 53.6353V53.6218C38.795 51.0271 36.806 48.7334 36.0558 47.8692C36.046 47.8472 36.0276 47.8264 36.008 47.808V47.808ZM21.2899 27.6127L21.7208 29.2284L20.2997 29.7865L19.5335 26.3459C20.3279 26.4818 21.1137 26.953 21.2899 27.6091V27.6127ZM8.64766 39.2599L6.34539 37.6357C3.66125 35.7423 4.7163 32.1585 6.08591 29.7583C7.90716 32.0704 8.85695 34.4693 8.90836 36.9038C8.92706 37.6973 8.83938 38.4897 8.64766 39.2599V39.2599ZM35.6213 52.3881C34.6617 52.3073 31.204 50.8716 26.9311 47.9623C22.263 44.78 19.1174 41.5304 18.5177 39.2611C18.4887 39.1426 18.4365 39.031 18.3639 38.9329C18.2914 38.8348 18.2 38.7521 18.0952 38.6898C17.9903 38.6274 17.874 38.5865 17.7532 38.5696C17.6324 38.5527 17.5094 38.56 17.3914 38.5912C17.2734 38.6223 17.1629 38.6767 17.0661 38.7511C16.9694 38.8255 16.8885 38.9184 16.8281 39.0244C16.7678 39.1305 16.7291 39.2475 16.7145 39.3686C16.6999 39.4897 16.7095 39.6126 16.7429 39.7299C18.1297 44.9758 28.6153 51.8594 33.6482 53.7308C33.3475 53.8247 33.0408 53.8983 32.7303 53.9511C31.1624 54.2228 29.5565 54.016 28.734 53.4358L10.2327 40.3786C10.5898 39.2838 10.7627 38.1373 10.7443 36.9858C10.7223 34.8586 10.0638 31.6445 7.14708 28.1549L8.61583 26.0999L10.6501 29.7583C11.1329 30.8032 11.9048 31.688 12.8746 32.3081C13.8443 32.9282 14.9713 33.2577 16.1224 33.2576H16.3047C16.4099 33.2541 16.5138 33.233 16.612 33.1952L22.3976 30.9333L23.5506 33.074L21.6804 34.0814C21.5742 34.1385 21.4803 34.216 21.4041 34.3094C21.3279 34.4028 21.2708 34.5103 21.2362 34.6258C21.2015 34.7413 21.1899 34.8625 21.2021 34.9824C21.2142 35.1024 21.2499 35.2187 21.3071 35.3249C21.3642 35.4311 21.4417 35.5249 21.5351 35.6011C21.6285 35.6774 21.736 35.7344 21.8515 35.7691C21.967 35.8038 22.0882 35.8153 22.2081 35.8032C22.3281 35.791 22.4444 35.7553 22.5506 35.6982L24.422 34.6823L25.5456 36.763L24.2384 37.4668C24.1302 37.5228 24.0342 37.5998 23.9561 37.6934C23.8779 37.7869 23.8191 37.895 23.7832 38.0114C23.7473 38.1279 23.7349 38.2503 23.7468 38.3716C23.7587 38.4929 23.7946 38.6106 23.8524 38.7179C23.9103 38.8251 23.9889 38.9198 24.0838 38.9963C24.1786 39.0729 24.2877 39.1298 24.4047 39.1637C24.5218 39.1977 24.6444 39.208 24.7655 39.194C24.8866 39.1801 25.0036 39.1421 25.1099 39.0825L26.422 38.3762C26.728 38.9197 27.045 39.4566 27.373 39.987L26.0144 40.7213C25.8 40.8367 25.6402 41.0326 25.5702 41.2658C25.5002 41.499 25.5257 41.7505 25.6411 41.9649C25.7565 42.1793 25.9523 42.3391 26.1856 42.4091C26.4188 42.4791 26.6702 42.4536 26.8846 42.3382L28.3717 41.5377C30.211 44.272 32.3332 46.8049 34.7033 49.0944C36.0729 50.688 36.1072 51.5729 35.6213 52.3881V52.3881Z" fill="black"/>
<path d="M63.0987 57.5235L44.916 39.3408L39.4952 44.7617L57.6779 62.9444L63.0987 57.5235Z" fill="#ED1C24"/>
<path d="M44.9397 62.94L63.1224 44.7573L57.7015 39.3365L39.5188 57.5192L44.9397 62.94Z" fill="#ED1C24"/>
</g>
<defs>
<clipPath id="clip0_1_19">
<rect width="62.6667" height="62.6667" fill="white" transform="translate(0.333344 0.166992)"/>
</clipPath>
</defs>
</svg>
