<svg width="64" height="63" viewBox="0 0 64 63" fill="none" xmlns="http://www.w3.org/2000/svg">
<g clip-path="url(#clip0_1_9)">
<path d="M61.4968 14.8545H35.6716L44.484 3.10458C45.0924 2.29347 44.9279 1.14272 44.1168 0.534292C43.3057 -0.0741317 42.1549 0.0903667 41.5465 0.901476L31.9997 13.6305L22.4529 0.901476C21.8445 0.0903667 20.6939 -0.0741317 19.8827 0.534292C19.0715 1.14272 18.9071 2.29347 19.5155 3.10458L28.3279 14.8545H2.50262C1.4887 14.8545 0.666702 15.6765 0.666702 16.6904V53.6536C0.666702 54.6675 1.4887 55.4895 2.50262 55.4895H14.3417L11.9984 60.1762C11.5449 61.0832 11.9126 62.1858 12.8194 62.6394C13.728 63.0937 14.83 62.7235 15.2826 61.8184L18.447 55.4896H45.5524L48.7168 61.8184C49.1703 62.7255 50.2732 63.0929 51.1799 62.6394C52.0869 62.1859 52.4544 61.0832 52.001 60.1762L49.6576 55.4895H61.4967C62.5106 55.4895 63.3326 54.6675 63.3326 53.6536V16.6904C63.3328 15.6765 62.5107 14.8545 61.4968 14.8545V14.8545ZM59.6609 51.8176H4.33854V18.5263H59.6609V51.8176Z" fill="black"/>
<path d="M19.1486 35.1718C19.1486 42.2688 24.9253 48.0232 32.0001 48.0232C39.0971 48.0232 44.8515 42.2468 44.8515 35.1718C44.8515 28.0855 39.0863 22.3203 32.0001 22.3203C24.9138 22.3203 19.1486 28.0855 19.1486 35.1718ZM33.3339 37.0077H30.6661L29.8417 34.4706L32.0001 32.9024L34.1584 34.4706L33.3339 37.0077ZM30.1641 26.1768V29.6976L27.3612 31.7342L24.0176 30.6478C25.307 28.3814 27.5316 26.7134 30.1641 26.1768V26.1768ZM22.8205 35.1718C22.8205 34.8224 22.842 34.4781 22.8802 34.1389L26.2266 35.2262L27.2972 38.5212L25.2311 41.3649C23.735 39.7311 22.8205 37.5565 22.8205 35.1718V35.1718ZM28.2004 43.5248L30.2677 40.6795H33.7323L35.7996 43.5248C34.6408 44.054 33.3548 44.3513 32.0001 44.3513C30.6451 44.3513 29.3593 44.0539 28.2004 43.5248V43.5248ZM38.769 41.3649L36.7029 38.5212L37.7735 35.2262L41.1199 34.1389C41.1581 34.4781 41.1797 34.8224 41.1797 35.1718C41.1797 37.5565 40.265 39.7311 38.769 41.3649V41.3649ZM39.9825 30.6478L36.6389 31.7342L33.836 29.6976V26.1768C36.4686 26.7134 38.693 28.3814 39.9825 30.6478V30.6478Z" fill="black"/>
</g>
<defs>
<clipPath id="clip0_1_9">
<rect width="62.6667" height="62.6667" fill="white" transform="translate(0.666656 0.166992)"/>
</clipPath>
</defs>
</svg>
