<svg width="64" height="64" viewBox="0 0 64 64" fill="none" xmlns="http://www.w3.org/2000/svg">
<g clip-path="url(#clip0_1_13)">
<path d="M63.1326 32.0441C63.1267 29.2458 62.3542 26.5026 60.899 24.1124C59.4438 21.7222 57.3615 19.7764 54.8782 18.4863C54.8451 18.4642 54.8103 18.4445 54.7742 18.4276C54.7559 18.4188 54.7371 18.411 54.7179 18.4043C52.5667 17.3178 50.1889 16.7558 47.7789 16.7643C45.3689 16.7728 42.9951 17.3516 40.8517 18.4533C40.8345 18.4606 40.8174 18.4668 40.8015 18.4753C40.7671 18.492 40.7339 18.5113 40.7023 18.5329C38.3355 19.7791 36.337 21.6244 34.9063 23.8845C33.4756 26.1447 32.6628 28.7405 32.549 31.413C32.4351 34.0854 33.0243 36.741 34.2576 39.1146C35.4909 41.4882 37.3253 43.4967 39.5775 44.9398C39.6289 44.9799 39.6843 45.0148 39.7427 45.0438C41.9675 46.4332 44.5125 47.2264 47.1327 47.3471C49.753 47.4678 52.3601 46.9119 54.7032 45.7329L54.7583 45.7096C54.7952 45.6923 54.8308 45.6723 54.8648 45.6497C57.3514 44.3609 59.4369 42.4149 60.8947 40.0234C62.3524 37.6319 63.1264 34.8865 63.1326 32.0857V32.0441ZM47.8331 18.6002C49.6629 18.5994 51.4734 18.9743 53.1524 19.7017L50.5576 25.1606H45.1025L42.4391 19.7336C44.1396 18.9863 45.9769 18.6011 47.8343 18.6026L47.8331 18.6002ZM50.5944 26.9929L53.3923 32.0637L50.5944 37.1358H45.0719L42.2812 32.0662L45.078 26.9953L50.5944 26.9929ZM40.8125 20.5842L43.4954 26.0529L40.6803 31.1494H34.4026C34.5509 29.0048 35.21 26.9267 36.3251 25.0888C37.4402 23.2508 38.9788 21.7063 40.8125 20.5842V20.5842ZM34.4026 32.9854H40.6901L43.4526 37.995L39.9276 42.9533C38.3337 41.7969 37.013 40.305 36.0584 38.5827C35.1038 36.8605 34.5386 34.9498 34.4026 32.9854V32.9854ZM47.8343 45.5297C45.6169 45.5342 43.4332 44.9875 41.4795 43.9386L45.0045 38.9791H50.5564L53.1414 44.4441C51.4648 45.1636 49.6588 45.533 47.8343 45.5297V45.5297ZM54.7742 43.5995L52.1684 38.0917L54.9835 32.989H61.2648C61.1149 35.149 60.4467 37.241 59.3169 39.0879C58.1871 40.9349 56.6289 42.4824 54.7742 43.5995ZM54.9835 31.1494L52.1684 26.048L54.7852 20.5402C56.6374 21.6583 58.1931 23.206 59.3208 25.0525C60.4484 26.8989 61.1148 28.9898 61.2636 31.1482L54.9835 31.1494ZM51.9933 50.5638C51.8744 50.5446 51.7528 50.5491 51.6356 50.5769C51.5183 50.6047 51.4077 50.6553 51.3101 50.7259C51.2124 50.7965 51.1297 50.8857 51.0665 50.9883C51.0033 51.0909 50.961 51.2049 50.942 51.3239C50.5283 53.8942 49.576 55.6323 48.1097 56.5074C46.5761 57.4217 44.4379 57.4107 41.7451 56.4719C41.5152 56.3917 41.2627 56.4062 41.0434 56.5121C40.8241 56.618 40.6558 56.8068 40.5757 57.0368C40.4955 57.2667 40.5099 57.5192 40.6159 57.7385C40.7218 57.9578 40.9105 58.1261 41.1405 58.2062C42.6974 58.748 44.12 59.0194 45.4084 59.0202C46.7854 59.0202 48.0032 58.7081 49.0485 58.0838C51.0068 56.9186 52.2492 54.7424 52.7522 51.6165C52.791 51.3763 52.7329 51.1305 52.5906 50.9331C52.4483 50.7357 52.2335 50.6029 51.9933 50.5638V50.5638ZM36.3414 48.4746C34.0955 46.3091 32.0803 43.9165 30.3281 41.3352L30.6108 41.1834C30.8252 41.0679 30.9849 40.8719 31.0548 40.6385C31.1247 40.4052 31.0991 40.1537 30.9835 39.9393C30.8679 39.7249 30.6719 39.5652 30.4386 39.4953C30.2053 39.4254 29.9537 39.451 29.7393 39.5666L29.3256 39.7893C28.9992 39.2606 28.681 38.7241 28.3709 38.1798L28.8348 37.935C29.0499 37.8192 29.2101 37.6226 29.2802 37.3886C29.3503 37.1546 29.3246 36.9023 29.2087 36.6872C29.0929 36.4722 28.8963 36.312 28.6623 36.2418C28.4283 36.1717 28.176 36.1974 27.9609 36.3133L27.4946 36.5728L26.3698 34.4774C26.5529 34.348 26.6824 34.156 26.7337 33.9377C26.785 33.7194 26.7546 33.4898 26.6483 33.2924C26.542 33.095 26.367 32.9433 26.1565 32.866C25.946 32.7886 25.7145 32.7911 25.5057 32.8728L24.0137 30.1054L23.4017 27.8019C22.9574 26.141 21.1312 25.1545 19.4532 25.1251L15.2403 6.21861C15.2155 6.09955 15.1673 5.98661 15.0985 5.88633C15.0297 5.78606 14.9416 5.70046 14.8395 5.63451C14.7373 5.56855 14.623 5.52356 14.5033 5.50214C14.3836 5.48072 14.2608 5.48331 14.1421 5.50974C14.0234 5.53617 13.9111 5.58593 13.8118 5.65612C13.7125 5.72631 13.6281 5.81554 13.5636 5.91862C13.4991 6.02169 13.4556 6.13657 13.4359 6.25657C13.4161 6.37656 13.4204 6.49929 13.4484 6.61762L18.9036 31.1225L16.4337 32.0882C15.6324 32.0831 14.8492 31.8488 14.1769 31.4128C13.5045 30.9769 12.971 30.3575 12.6394 29.628C12.6296 29.606 12.6186 29.584 12.6076 29.5632L2.38754 11.1891C2.32903 11.0837 2.25033 10.9908 2.15593 10.9158C2.06152 10.8407 1.95327 10.785 1.83734 10.7519C1.72141 10.7187 1.60008 10.7086 1.48028 10.7223C1.36047 10.736 1.24454 10.7732 1.1391 10.8317C1.03366 10.8902 0.940776 10.9689 0.865751 11.0633C0.790726 11.1577 0.73503 11.266 0.701843 11.3819C0.668656 11.4978 0.658627 11.6192 0.67233 11.739C0.686033 11.8588 0.723198 11.9747 0.781705 12.0802L7.95777 24.9892L5.57473 28.3306L5.56249 28.3478C2.89303 32.1421 1.8747 37.1603 5.62124 39.8028L28.0111 55.6017C29.0196 56.314 30.4003 56.5698 31.694 56.5698C32.2588 56.57 32.8227 56.5221 33.3794 56.4266C34.4259 56.2455 36.3291 55.7302 37.3205 54.3202C37.3205 54.3141 37.3279 54.3079 37.3328 54.3018V54.2884C39.1283 51.6936 37.1394 49.3999 36.3891 48.5357C36.3793 48.5137 36.361 48.4929 36.3414 48.4746V48.4746ZM21.6233 28.2792L22.0541 29.8949L20.6331 30.453L19.8669 27.0124C20.6612 27.1483 21.447 27.6195 21.6233 28.2756V28.2792ZM8.981 39.9264L6.67874 38.3022C3.9946 36.4088 5.04965 32.825 6.41926 30.4248C8.24051 32.7369 9.1903 35.1359 9.2417 37.5703C9.26041 38.3638 9.17272 39.1562 8.981 39.9264V39.9264ZM35.9546 53.0546C34.995 52.9738 31.5373 51.5381 27.2645 48.6288C22.5963 45.4465 19.4507 42.1969 18.851 39.9277C18.8221 39.8091 18.7698 39.6975 18.6973 39.5994C18.6247 39.5013 18.5334 39.4186 18.4285 39.3563C18.3236 39.2939 18.2074 39.253 18.0866 39.2361C17.9657 39.2192 17.8427 39.2265 17.7247 39.2577C17.6068 39.2888 17.4962 39.3432 17.3995 39.4176C17.3028 39.492 17.2219 39.5849 17.1615 39.6909C17.1011 39.797 17.0625 39.914 17.0478 40.0351C17.0332 40.1562 17.0429 40.2791 17.0763 40.3964C18.463 45.6423 28.9487 52.5259 33.9816 54.3973C33.6809 54.4912 33.3742 54.5648 33.0636 54.6176C31.4957 54.8893 29.8899 54.6825 29.0674 54.1023L10.566 41.0451C10.9232 39.9503 11.0961 38.8038 11.0776 37.6523C11.0556 35.5251 10.3971 32.311 7.48043 28.8215L8.94918 26.7664L10.9834 30.4248C11.4663 31.4697 12.2382 32.3545 13.2079 32.9746C14.1777 33.5947 15.3047 33.9242 16.4557 33.9241H16.6381C16.7433 33.9206 16.8471 33.8995 16.9453 33.8617L22.7309 31.5998L23.8839 33.7405L22.0137 34.7479C21.9075 34.805 21.8137 34.8825 21.7375 34.9759C21.6612 35.0693 21.6042 35.1768 21.5695 35.2923C21.5348 35.4078 21.5233 35.529 21.5354 35.6489C21.5476 35.7689 21.5833 35.8852 21.6404 35.9914C21.6975 36.0976 21.775 36.1914 21.8685 36.2676C21.9619 36.3439 22.0694 36.4009 22.1849 36.4356C22.3003 36.4703 22.4215 36.4818 22.5415 36.4697C22.6614 36.4575 22.7778 36.4218 22.8839 36.3647L24.7554 35.3488L25.879 37.4296L24.5718 38.1333C24.4635 38.1893 24.3676 38.2663 24.2894 38.3599C24.2112 38.4534 24.1525 38.5615 24.1165 38.6779C24.0806 38.7944 24.0682 38.9168 24.0801 39.0381C24.092 39.1594 24.1279 39.2771 24.1858 39.3844C24.2436 39.4916 24.3223 39.5863 24.4171 39.6629C24.5119 39.7394 24.621 39.7963 24.7381 39.8302C24.8551 39.8642 24.9778 39.8745 25.0988 39.8605C25.2199 39.8466 25.337 39.8086 25.4432 39.749L26.7553 39.0427C27.0613 39.5862 27.3783 40.1231 27.7063 40.6535L26.3477 41.3878C26.1333 41.5032 25.9736 41.6991 25.9035 41.9323C25.8335 42.1655 25.859 42.417 25.9744 42.6314C26.0898 42.8458 26.2857 43.0056 26.5189 43.0756C26.7521 43.1456 27.0036 43.1201 27.218 43.0047L28.7051 42.2042C30.5443 44.9385 32.6666 47.4714 35.0366 49.7609C36.4062 51.3545 36.4405 52.2394 35.9546 53.0546V53.0546Z" fill="black"/>
</g>
<defs>
<clipPath id="clip0_1_13">
<rect width="62.6667" height="62.6667" fill="white" transform="translate(0.666656 0.833008)"/>
</clipPath>
</defs>
</svg>
