<svg width="64" height="64" viewBox="0 0 64 64" fill="none" xmlns="http://www.w3.org/2000/svg">
<g clip-path="url(#clip0_1_15)">
<path d="M63.1326 31.8776C63.1267 29.0793 62.3542 26.336 60.899 23.9458C59.4438 21.5556 57.3615 19.6099 54.8782 18.3198C54.8451 18.2976 54.8103 18.278 54.7742 18.2611C54.7559 18.2523 54.7371 18.2445 54.7179 18.2378C52.5667 17.1513 50.1889 16.5893 47.7789 16.5978C45.3689 16.6063 42.9951 17.1851 40.8517 18.2868C40.8345 18.2941 40.8174 18.3003 40.8015 18.3088C40.7671 18.3255 40.7339 18.3448 40.7023 18.3664C38.3355 19.6126 36.337 21.4579 34.9063 23.718C33.4756 25.9782 32.6628 28.574 32.549 31.2465C32.4351 33.9189 33.0243 36.5745 34.2576 38.9481C35.4909 41.3217 37.3253 43.3302 39.5775 44.7733C39.6289 44.8134 39.6843 44.8483 39.7427 44.8773C41.9675 46.2667 44.5125 47.0599 47.1327 47.1806C49.753 47.3013 52.3601 46.7454 54.7032 45.5664L54.7583 45.5431C54.7952 45.5258 54.8308 45.5058 54.8648 45.4832C57.3514 44.1944 59.4369 42.2484 60.8947 39.8569C62.3524 37.4654 63.1264 34.72 63.1326 31.9192V31.8776ZM47.8331 18.4337C49.6629 18.4329 51.4734 18.8078 53.1524 19.5352L50.5576 24.9941H45.1025L42.4391 19.5671C44.1396 18.8198 45.9769 18.4346 47.8343 18.4361L47.8331 18.4337ZM50.5944 26.8264L53.3923 31.8972L50.5944 36.9693H45.0719L42.2812 31.8997L45.078 26.8288L50.5944 26.8264ZM40.8125 20.4177L43.4954 25.8864L40.6803 30.9829H34.4026C34.5509 28.8383 35.21 26.7602 36.3251 24.9223C37.4402 23.0843 38.9788 21.5398 40.8125 20.4177V20.4177ZM34.4026 32.8189H40.6901L43.4526 37.8285L39.9276 42.7868C38.3337 41.6304 37.013 40.1385 36.0584 38.4162C35.1038 36.694 34.5386 34.7833 34.4026 32.8189V32.8189ZM47.8343 45.3632C45.6169 45.3677 43.4332 44.8209 41.4795 43.7721L45.0045 38.8126H50.5564L53.1414 44.2776C51.4648 44.9971 49.6588 45.3665 47.8343 45.3632V45.3632ZM54.7742 43.433L52.1684 37.9252L54.9835 32.8225H61.2648C61.1149 34.9825 60.4467 37.0745 59.3169 38.9214C58.1871 40.7684 56.6289 42.3159 54.7742 43.433ZM54.9835 30.9829L52.1684 25.8815L54.7852 20.3736C56.6374 21.4918 58.1931 23.0395 59.3208 24.886C60.4484 26.7324 61.1148 28.8233 61.2636 30.9817L54.9835 30.9829ZM51.9933 50.3973C51.8744 50.3781 51.7528 50.3826 51.6356 50.4104C51.5183 50.4382 51.4077 50.4888 51.3101 50.5594C51.2124 50.63 51.1297 50.7192 51.0665 50.8218C51.0033 50.9244 50.961 51.0384 50.942 51.1574C50.5283 53.7277 49.576 55.4658 48.1097 56.3409C46.5761 57.2552 44.4379 57.2442 41.7451 56.3054C41.5152 56.2252 41.2627 56.2397 41.0434 56.3456C40.8241 56.4515 40.6558 56.6403 40.5757 56.8702C40.4955 57.1002 40.5099 57.3527 40.6159 57.572C40.7218 57.7913 40.9105 57.9596 41.1405 58.0397C42.6974 58.5815 44.12 58.8529 45.4084 58.8537C46.7854 58.8537 48.0032 58.5416 49.0485 57.9173C51.0068 56.7521 52.2492 54.5759 52.7522 51.4499C52.791 51.2098 52.7329 50.964 52.5906 50.7666C52.4483 50.5692 52.2335 50.4364 51.9933 50.3973V50.3973ZM36.3414 48.308C34.0955 46.1426 32.0803 43.75 30.3281 41.1687L30.6108 41.0169C30.8252 40.9014 30.9849 40.7054 31.0548 40.472C31.1247 40.2387 31.0991 39.9872 30.9835 39.7728C30.8679 39.5584 30.6719 39.3986 30.4386 39.3288C30.2053 39.2589 29.9537 39.2845 29.7393 39.4001L29.3256 39.6228C28.9992 39.0941 28.681 38.5576 28.3709 38.0133L28.8348 37.7685C29.0499 37.6527 29.2101 37.4561 29.2802 37.2221C29.3503 36.9881 29.3246 36.7358 29.2087 36.5207C29.0929 36.3057 28.8963 36.1454 28.6623 36.0753C28.4283 36.0052 28.176 36.0309 27.9609 36.1468L27.4946 36.4063L26.3698 34.3109C26.5529 34.1815 26.6824 33.9895 26.7337 33.7712C26.785 33.5529 26.7546 33.3233 26.6483 33.1259C26.542 32.9284 26.367 32.7768 26.1565 32.6994C25.946 32.6221 25.7145 32.6246 25.5057 32.7062L24.0137 29.9389L23.4017 27.6354C22.9574 25.9745 21.1312 24.988 19.4532 24.9586L15.2403 6.05211C15.2155 5.93305 15.1673 5.8201 15.0985 5.71983C15.0297 5.61956 14.9416 5.53396 14.8395 5.468C14.7373 5.40205 14.623 5.35706 14.5033 5.33564C14.3836 5.31422 14.2608 5.3168 14.1421 5.34324C14.0234 5.36967 13.9111 5.41943 13.8118 5.48962C13.7125 5.55981 13.6281 5.64904 13.5636 5.75211C13.4991 5.85519 13.4556 5.97006 13.4359 6.09006C13.4161 6.21006 13.4204 6.33279 13.4484 6.45112L18.9036 30.956L16.4337 31.9217C15.6324 31.9166 14.8492 31.6823 14.1769 31.2463C13.5045 30.8104 12.971 30.191 12.6394 29.4615C12.6296 29.4395 12.6186 29.4175 12.6076 29.3967L2.38754 11.0226C2.32903 10.9172 2.25033 10.8243 2.15593 10.7493C2.06152 10.6742 1.95327 10.6185 1.83734 10.5853C1.72141 10.5522 1.60008 10.5421 1.48028 10.5558C1.36047 10.5695 1.24454 10.6067 1.1391 10.6652C1.03366 10.7237 0.940776 10.8024 0.865751 10.8968C0.790726 10.9912 0.73503 11.0995 0.701843 11.2154C0.668656 11.3313 0.658627 11.4527 0.67233 11.5725C0.686033 11.6923 0.723198 11.8082 0.781705 11.9136L7.95777 24.8227L5.57473 28.1641L5.56249 28.1813C2.89303 31.9755 1.8747 36.9938 5.62124 39.6363L28.0111 55.4352C29.0196 56.1475 30.4003 56.4033 31.694 56.4033C32.2588 56.4035 32.8227 56.3556 33.3794 56.2601C34.4259 56.079 36.3291 55.5637 37.3205 54.1537C37.3205 54.1476 37.3279 54.1414 37.3328 54.1353V54.1218C39.1283 51.5271 37.1394 49.2334 36.3891 48.3692C36.3793 48.3472 36.361 48.3264 36.3414 48.308V48.308ZM21.6233 28.1127L22.0541 29.7284L20.6331 30.2865L19.8669 26.8459C20.6612 26.9818 21.447 27.453 21.6233 28.1091V28.1127ZM8.981 39.7599L6.67874 38.1357C3.9946 36.2423 5.04965 32.6585 6.41926 30.2583C8.24051 32.5704 9.1903 34.9693 9.2417 37.4038C9.26041 38.1973 9.17272 38.9897 8.981 39.7599V39.7599ZM35.9546 52.8881C34.995 52.8073 31.5373 51.3716 27.2645 48.4623C22.5963 45.28 19.4507 42.0304 18.851 39.7611C18.8221 39.6426 18.7698 39.531 18.6973 39.4329C18.6247 39.3348 18.5334 39.2521 18.4285 39.1898C18.3236 39.1274 18.2074 39.0865 18.0866 39.0696C17.9657 39.0527 17.8427 39.06 17.7247 39.0912C17.6068 39.1223 17.4962 39.1767 17.3995 39.2511C17.3028 39.3255 17.2219 39.4184 17.1615 39.5244C17.1011 39.6305 17.0625 39.7475 17.0478 39.8686C17.0332 39.9897 17.0429 40.1126 17.0763 40.2299C18.463 45.4758 28.9487 52.3594 33.9816 54.2308C33.6809 54.3247 33.3742 54.3983 33.0636 54.4511C31.4957 54.7228 29.8899 54.516 29.0674 53.9358L10.566 40.8786C10.9232 39.7838 11.0961 38.6373 11.0776 37.4858C11.0556 35.3586 10.3971 32.1445 7.48043 28.6549L8.94918 26.5999L10.9834 30.2583C11.4663 31.3032 12.2382 32.188 13.2079 32.8081C14.1777 33.4282 15.3047 33.7577 16.4557 33.7576H16.6381C16.7433 33.7541 16.8471 33.733 16.9453 33.6952L22.7309 31.4333L23.8839 33.574L22.0137 34.5814C21.9075 34.6385 21.8137 34.716 21.7375 34.8094C21.6612 34.9028 21.6042 35.0103 21.5695 35.1258C21.5348 35.2413 21.5233 35.3625 21.5354 35.4824C21.5476 35.6024 21.5833 35.7187 21.6404 35.8249C21.6975 35.9311 21.775 36.0249 21.8685 36.1011C21.9619 36.1774 22.0694 36.2344 22.1849 36.2691C22.3003 36.3038 22.4215 36.3153 22.5415 36.3032C22.6614 36.291 22.7778 36.2553 22.8839 36.1982L24.7554 35.1823L25.879 37.263L24.5718 37.9668C24.4635 38.0228 24.3676 38.0998 24.2894 38.1934C24.2112 38.2869 24.1525 38.395 24.1165 38.5114C24.0806 38.6279 24.0682 38.7503 24.0801 38.8716C24.092 38.9929 24.1279 39.1106 24.1858 39.2179C24.2436 39.3251 24.3223 39.4198 24.4171 39.4963C24.5119 39.5729 24.621 39.6298 24.7381 39.6637C24.8551 39.6977 24.9778 39.708 25.0988 39.694C25.2199 39.6801 25.337 39.6421 25.4432 39.5825L26.7553 38.8762C27.0613 39.4197 27.3783 39.9566 27.7063 40.487L26.3477 41.2213C26.1333 41.3367 25.9736 41.5326 25.9035 41.7658C25.8335 41.999 25.859 42.2505 25.9744 42.4649C26.0898 42.6793 26.2857 42.8391 26.5189 42.9091C26.7521 42.9791 27.0036 42.9536 27.218 42.8382L28.7051 42.0377C30.5443 44.772 32.6666 47.3049 35.0366 49.5944C36.4062 51.188 36.4405 52.0729 35.9546 52.8881V52.8881Z" fill="black"/>
<path d="M63.4321 58.0235L45.2494 39.8408L39.8285 45.2617L58.0112 63.4444L63.4321 58.0235Z" fill="#ED1C24"/>
<path d="M45.273 63.44L63.4557 45.2573L58.0349 39.8365L39.8522 58.0192L45.273 63.44Z" fill="#ED1C24"/>
</g>
<defs>
<clipPath id="clip0_1_15">
<rect width="62.6667" height="62.6667" fill="white" transform="translate(0.666656 0.666992)"/>
</clipPath>
</defs>
</svg>
