<svg width="63" height="63" viewBox="0 0 63 63" fill="none" xmlns="http://www.w3.org/2000/svg">
<g clip-path="url(#clip0_1_89)">
<path d="M58.9948 25.8253C58.9948 23.7167 59.7115 21.5479 60.1983 20.3174H60.8307C61.8447 20.3174 62.6667 19.4954 62.6667 18.4815C62.6667 17.4676 61.8447 16.6456 60.8307 16.6456H21.9603C21.2024 14.5088 19.1617 12.9737 16.7682 12.9737H5.50781C2.4708 12.9737 0 15.4445 0 18.4815C0 21.5185 2.4708 23.9893 5.50781 23.9893H16.7682C19.1617 23.9893 21.2024 22.4542 21.9603 20.3174H34.2645C33.7712 21.8266 33.2918 23.811 33.2918 25.8253C33.2918 29.8839 35.2386 33.8243 35.3215 33.99C35.7781 34.9036 36.9635 37.8562 36.9635 40.5128C36.9635 43.6889 35.3367 47.0049 35.3214 47.0355C35.0368 47.6045 35.0673 48.2805 35.4018 48.8217C35.7363 49.3629 36.3272 49.6924 36.9635 49.6924H47.9704C47.9728 49.6924 47.9752 49.6928 47.9777 49.6928C47.9817 49.6928 47.9858 49.6924 47.9898 49.6924H58.9948C59.6902 49.6924 60.3258 49.2996 60.637 48.6775C60.7198 48.5118 62.6667 44.5714 62.6667 40.5128C62.6667 36.4541 60.7198 32.5137 60.637 32.348C60.1802 31.4345 58.9948 28.482 58.9948 25.8253V25.8253ZM56.2956 31.3331H49.1784C48.6514 29.9941 47.9792 27.8259 47.9792 25.8253C47.9792 23.7167 48.6959 21.5479 49.1827 20.3174H56.2956C55.8023 21.8266 55.3229 23.811 55.3229 25.8253C55.3229 27.8395 55.8025 29.824 56.2956 31.3331ZM16.7682 20.3174H5.50781C4.49548 20.3174 3.67187 19.4938 3.67187 18.4815C3.67187 17.4692 4.49548 16.6456 5.50781 16.6456H16.7682C17.7806 16.6456 18.6042 17.4692 18.6042 18.4815C18.6042 19.4938 17.7806 20.3174 16.7682 20.3174ZM45.28 20.3174C44.7867 21.8266 44.3073 23.811 44.3073 25.8253C44.3073 27.8395 44.7868 29.8239 45.28 31.3331H38.1628C37.6357 29.9941 36.9635 27.8259 36.9635 25.8253C36.9635 23.7164 37.6805 21.5469 38.1671 20.3174H45.28ZM39.6627 35.0049H46.7799C47.307 36.3439 47.9792 38.5121 47.9792 40.5128C47.9792 42.6216 47.2622 44.7911 46.7756 46.0206H39.6629C40.156 44.5115 40.6354 42.5268 40.6354 40.5128C40.6354 38.4986 40.1559 36.5141 39.6627 35.0049ZM57.7915 46.0206H50.6784C51.1716 44.5114 51.651 42.527 51.651 40.5128C51.651 38.4985 51.1715 36.5141 50.6784 35.0049H57.7956C58.3226 36.3439 58.9948 38.5121 58.9948 40.5128C58.9948 42.621 58.278 44.7909 57.7915 46.0206Z" fill="black"/>
</g>
<defs>
<clipPath id="clip0_1_89">
<rect width="62.6667" height="62.6667" fill="white"/>
</clipPath>
</defs>
</svg>
