<svg width="63" height="63" viewBox="0 0 63 63" fill="none" xmlns="http://www.w3.org/2000/svg">
<path fill-rule="evenodd" clip-rule="evenodd" d="M59.2396 17.2158C58.5737 17.2158 57.4595 18.1205 57.3655 18.1734C56.2277 18.8275 54.9293 19.1741 53.6094 19.1741C51.044 19.1741 48.6744 17.8875 47.2742 15.7294C46.6827 14.8227 45.4725 14.5623 44.5658 15.1537C43.6591 15.7431 43.4006 16.9553 43.99 17.864C46.1148 21.1364 49.7123 23.0908 53.6113 23.0908C54.8666 23.0908 56.1043 22.8617 57.2832 22.4622V33.9439C57.2832 35.0249 56.4039 35.9022 55.3249 35.9022H7.34375C6.26471 35.9022 5.38542 35.0249 5.38542 33.9439V33.5365C5.38542 32.2715 6.49775 30.8223 7.71779 30.4933L20.4705 27.0603C22.7382 26.4513 26.0967 25.0393 28.1138 23.8448L38.6947 17.5957C39.6249 17.0454 39.9343 15.845 39.384 14.9128C38.8337 13.9806 37.6313 13.6732 36.7011 14.2235L26.1202 20.4745C24.4185 21.481 21.3674 22.7657 19.4541 23.2788L6.69946 26.7118C3.76587 27.501 1.46875 30.5011 1.46875 33.5365V33.9439C1.46875 37.183 4.10467 39.8189 7.34375 39.8189H9.05729V42.8406C9.05729 43.9235 9.93462 44.7989 11.0156 44.7989C12.0966 44.7989 12.974 43.9235 12.974 42.8406V39.8189H15.9115V42.8406C15.9115 43.9235 16.7888 44.7989 17.8698 44.7989C18.9508 44.7989 19.8281 43.9235 19.8281 42.8406V39.8189H22.5208V42.8406C22.5208 43.9235 23.3982 44.7989 24.4792 44.7989C25.5602 44.7989 26.4375 43.9235 26.4375 42.8406V39.8189H42.6545V42.8406C42.6545 43.9235 43.5318 44.7989 44.6128 44.7989C45.6938 44.7989 46.5711 43.9235 46.5711 42.8406V39.8189H49.2638V42.8406C49.2638 43.9235 50.1412 44.7989 51.2222 44.7989C52.3032 44.7989 53.1805 43.9235 53.1805 42.8406V39.8189H55.3229C58.562 39.8189 61.1979 37.183 61.1979 33.9439V19.1741C61.1979 18.0912 60.3206 17.2158 59.2396 17.2158Z" fill="black"/>
</svg>
