<svg width="63" height="63" viewBox="0 0 63 63" fill="none" xmlns="http://www.w3.org/2000/svg">
<g clip-path="url(#clip0_1_23)">
<path d="M31.6667 18.6484C24.5803 18.6484 18.8151 24.4136 18.8151 31.5C18.8151 38.5711 24.5659 44.3516 31.6667 44.3516C38.7638 44.3516 44.5182 38.575 44.5182 31.5C44.5182 24.4136 38.753 18.6484 31.6667 18.6484ZM39.6492 26.9759L36.3056 28.0623L33.5026 26.0258V22.505C36.1352 23.0416 38.3596 24.7096 39.6492 26.9759ZM30.3328 33.3359L29.5085 30.7988L31.6667 29.2307L33.825 30.7988L33.0005 33.3359H30.3328ZM29.8307 22.505V26.0258L27.0277 28.0623L23.6841 26.9759C24.9737 24.7096 27.1981 23.0416 29.8307 22.505V22.505ZM22.487 31.5C22.487 31.1507 22.5085 30.8064 22.5466 30.4671L25.8931 31.5545L26.9637 34.8495L24.8977 37.6932C23.4015 36.0594 22.487 33.8846 22.487 31.5V31.5ZM27.8671 39.8532L29.9344 37.0078H33.3991L35.4663 39.8532C34.3075 40.3823 33.0215 40.6797 31.6667 40.6797C30.3119 40.6797 29.0259 40.3823 27.8671 39.8532ZM38.4356 37.6932L36.3696 34.8495L37.4402 31.5545L40.7867 30.4671C40.8249 30.8064 40.8464 31.1507 40.8464 31.5C40.8464 33.8846 39.9318 36.0594 38.4356 37.6932V37.6932Z" fill="black"/>
<path d="M61.1641 29.6639H55.464C54.5697 17.964 45.2025 8.59676 33.5026 7.70254V2.00244C33.5026 0.988514 32.6806 0.166504 31.6667 0.166504C30.6527 0.166504 29.8307 0.988514 29.8307 2.00244V7.70254C18.1308 8.59676 8.76359 17.964 7.86937 29.6639H2.16927C1.15534 29.6639 0.333332 30.4859 0.333332 31.4998C0.333332 32.5138 1.15534 33.3358 2.16927 33.3358H7.86937C8.76359 45.0357 18.1308 54.4029 29.8307 55.2971V60.9972C29.8307 62.0112 30.6527 62.8332 31.6667 62.8332C32.6806 62.8332 33.5026 62.0112 33.5026 60.9972V55.2971C45.2025 54.4029 54.5697 45.0357 55.464 33.3358H61.1641C62.178 33.3358 63 32.5138 63 31.4998C63 30.4859 62.178 29.6639 61.1641 29.6639ZM33.5026 51.6108V49.8592C33.5026 48.8453 32.6806 48.0233 31.6667 48.0233C30.6527 48.0233 29.8307 48.8453 29.8307 49.8592V51.6108C20.1572 50.7348 12.4317 43.0093 11.5557 33.3358H13.3073C14.3212 33.3358 15.1432 32.5138 15.1432 31.4998C15.1432 30.4859 14.3212 29.6639 13.3073 29.6639H11.5557C12.4317 19.9903 20.1572 12.2648 29.8307 11.3889V13.1405C29.8307 14.1544 30.6527 14.9764 31.6667 14.9764C32.6806 14.9764 33.5026 14.1544 33.5026 13.1405V11.3889C43.1762 12.2648 50.9017 19.9903 51.7776 29.6639H50.026C49.0121 29.6639 48.1901 30.4859 48.1901 31.4998C48.1901 32.5138 49.0121 33.3358 50.026 33.3358H51.7776C50.9017 43.0093 43.1762 50.7348 33.5026 51.6108Z" fill="black"/>
<path d="M5.96354 14.9766C6.97747 14.9766 7.79948 14.1546 7.79948 13.1406V7.63281H13.3073C14.3212 7.63281 15.1432 6.8108 15.1432 5.79688C15.1432 4.78295 14.3212 3.96094 13.3073 3.96094H5.96354C4.94961 3.96094 4.1276 4.78295 4.1276 5.79688V13.1406C4.1276 14.1546 4.94961 14.9766 5.96354 14.9766Z" fill="black"/>
<path d="M13.3073 55.3672H7.79948V49.8594C7.79948 48.8454 6.97747 48.0234 5.96354 48.0234C4.94961 48.0234 4.1276 48.8454 4.1276 49.8594V57.2031C4.1276 58.2171 4.94961 59.0391 5.96354 59.0391H13.3073C14.3212 59.0391 15.1432 58.2171 15.1432 57.2031C15.1432 56.1892 14.3212 55.3672 13.3073 55.3672Z" fill="black"/>
<path d="M57.3698 48.0234C56.3559 48.0234 55.5339 48.8454 55.5339 49.8594V55.3672H50.026C49.0121 55.3672 48.1901 56.1892 48.1901 57.2031C48.1901 58.2171 49.0121 59.0391 50.026 59.0391H57.3698C58.3837 59.0391 59.2057 58.2171 59.2057 57.2031V49.8594C59.2057 48.8454 58.3837 48.0234 57.3698 48.0234Z" fill="black"/>
<path d="M50.026 7.63281H55.5339V13.1406C55.5339 14.1546 56.3559 14.9766 57.3698 14.9766C58.3837 14.9766 59.2057 14.1546 59.2057 13.1406V5.79688C59.2057 4.78295 58.3837 3.96094 57.3698 3.96094H50.026C49.0121 3.96094 48.1901 4.78295 48.1901 5.79688C48.1901 6.8108 49.0121 7.63281 50.026 7.63281Z" fill="black"/>
</g>
<defs>
<clipPath id="clip0_1_23">
<rect width="62.6667" height="62.6667" fill="white" transform="translate(0.333332 0.166504)"/>
</clipPath>
</defs>
</svg>
