<svg width="63" height="63" viewBox="0 0 63 63" fill="none" xmlns="http://www.w3.org/2000/svg">
<path fill-rule="evenodd" clip-rule="evenodd" d="M59.2396 17.2156C58.5737 17.2156 57.4595 18.1204 57.3655 18.1732C56.2277 18.8273 54.9293 19.1739 53.6094 19.1739C51.044 19.1739 48.6744 17.8873 47.2742 15.7292C46.6827 14.8225 45.4725 14.5621 44.5658 15.1535C43.6591 15.7429 43.4006 16.9552 43.99 17.8638C46.1148 21.1362 49.7123 23.0906 53.6113 23.0906C54.8666 23.0906 56.1043 22.8615 57.2832 22.462V33.9437C57.2832 35.0247 56.4039 35.902 55.3249 35.902H7.34375C6.26471 35.902 5.38542 35.0247 5.38542 33.9437V33.5364C5.38542 32.2713 6.49775 30.8221 7.71779 30.4931L20.4705 27.0602C22.7382 26.4511 26.0967 25.0392 28.1138 23.8446L38.6947 17.5955C39.6249 17.0452 39.9343 15.8448 39.384 14.9126C38.8337 13.9804 37.6313 13.673 36.7011 14.2233L26.1202 20.4743C24.4185 21.4809 21.3674 22.7655 19.4541 23.2786L6.69946 26.7116C3.76587 27.5008 1.46875 30.5009 1.46875 33.5364V33.9437C1.46875 37.1828 4.10467 39.8187 7.34375 39.8187H9.05729V42.8404C9.05729 43.9234 9.93462 44.7987 11.0156 44.7987C12.0966 44.7987 12.974 43.9234 12.974 42.8404V39.8187H15.9115V42.8404C15.9115 43.9234 16.7888 44.7987 17.8698 44.7987C18.9508 44.7987 19.8281 43.9234 19.8281 42.8404V39.8187H22.5208V42.8404C22.5208 43.9234 23.3982 44.7987 24.4792 44.7987C25.5602 44.7987 26.4375 43.9234 26.4375 42.8404V39.8187H42.6545V42.8404C42.6545 43.9234 43.5318 44.7987 44.6128 44.7987C45.6938 44.7987 46.5711 43.9234 46.5711 42.8404V39.8187H49.2638V42.8404C49.2638 43.9234 50.1412 44.7987 51.2222 44.7987C52.3032 44.7987 53.1805 43.9234 53.1805 42.8404V39.8187H55.3229C58.562 39.8187 61.1979 37.1828 61.1979 33.9437V19.1739C61.1979 18.091 60.3206 17.2156 59.2396 17.2156Z" fill="black"/>
</svg>
