<svg width="63" height="63" viewBox="0 0 63 63" fill="none" xmlns="http://www.w3.org/2000/svg">
<g clip-path="url(#clip0_1_59)">
<path d="M53.487 29.4974H33.1693V14.6875H38.6771C39.691 14.6875 40.513 13.8655 40.513 12.8516V9.17969C40.513 4.11801 36.395 0 31.3333 0H9.17969C4.11801 0 0 4.11801 0 9.17969V12.8516C0 13.8655 0.82201 14.6875 1.83594 14.6875H7.34375V31.3333C7.34375 32.3473 8.16576 33.1693 9.17969 33.1693H23.9946C22.8394 34.7046 22.1536 36.6121 22.1536 38.6771V42.349C22.1536 43.3629 22.9757 44.1849 23.9896 44.1849H29.4974V60.8307C29.4974 61.8447 30.3194 62.6667 31.3333 62.6667H53.487C54.5009 62.6667 55.3229 61.8447 55.3229 60.8307V44.1849H60.8307C61.8447 44.1849 62.6667 43.3629 62.6667 42.349V38.6771C62.6667 33.6154 58.5487 29.4974 53.487 29.4974ZM11.0156 12.8516V9.17969C11.0156 8.16576 10.1936 7.34375 9.17969 7.34375C8.16576 7.34375 7.34375 8.16576 7.34375 9.17969V11.0156H3.67187V9.17969C3.67187 6.14268 6.14268 3.67187 9.17969 3.67187H31.3333C34.3703 3.67187 36.8411 6.14268 36.8411 9.17969V11.0156H33.1693V9.17969C33.1693 8.16576 32.3473 7.34375 31.3333 7.34375C30.3194 7.34375 29.4974 8.16576 29.4974 9.17969V29.4974H11.0156V12.8516ZM58.9948 40.513H55.3229V38.6771C55.3229 37.6632 54.5009 36.8411 53.487 36.8411C52.473 36.8411 51.651 37.6632 51.651 38.6771V58.9948H33.1693V38.6771C33.1693 37.6632 32.3473 36.8411 31.3333 36.8411C30.3194 36.8411 29.4974 37.6632 29.4974 38.6771V40.513H25.8255V38.6771C25.8255 35.6401 28.2963 33.1693 31.3333 33.1693H53.487C56.524 33.1693 58.9948 35.6401 58.9948 38.6771V40.513Z" fill="black"/>
<path d="M23.9896 18.3594H22.1536V9.17969C22.1536 8.16576 21.3316 7.34375 20.3177 7.34375C19.3038 7.34375 18.4818 8.16576 18.4818 9.17969C18.4818 10.192 17.6582 11.0156 16.6458 11.0156C15.6319 11.0156 14.8099 11.8376 14.8099 12.8516C14.8099 13.8655 15.6319 14.6875 16.6458 14.6875C17.2893 14.6875 17.9074 14.5766 18.4818 14.3729V18.3594H16.6458C15.6319 18.3594 14.8099 19.1814 14.8099 20.1953C14.8099 21.2092 15.6319 22.0313 16.6458 22.0313H23.9896C25.0035 22.0313 25.8255 21.2092 25.8255 20.1953C25.8255 19.1814 25.0035 18.3594 23.9896 18.3594Z" fill="black"/>
<path d="M46.0208 36.8411H38.6771C37.6632 36.8411 36.8411 37.6631 36.8411 38.677C36.8411 39.6909 37.6632 40.5129 38.6771 40.5129H42.3415C41.148 42.6355 40.513 45.0399 40.513 47.5416V49.6926C40.513 50.7066 41.335 51.5286 42.349 51.5286C43.3629 51.5286 44.1849 50.7066 44.1849 49.6926V47.5416C44.1849 44.6833 45.298 41.9963 47.319 39.9751C47.844 39.4501 48.0011 38.6604 47.717 37.9743C47.4329 37.2884 46.7634 36.8411 46.0208 36.8411Z" fill="black"/>
<path d="M15.3477 44.7226L14.8099 45.2603V38.677C14.8099 37.6631 13.9879 36.8411 12.974 36.8411C11.96 36.8411 11.138 37.6631 11.138 38.677V45.2603L10.6002 44.7225C9.88334 44.0055 8.72083 44.0055 8.00383 44.7225C7.28684 45.4395 7.28684 46.6019 8.00383 47.3189L11.6753 50.9905C12.389 51.7042 13.5544 51.7085 14.2723 50.9905L17.9438 47.3189C18.6608 46.6019 18.6608 45.4395 17.9438 44.7225C17.2271 44.0055 16.0646 44.0055 15.3477 44.7226V44.7226Z" fill="black"/>
<path d="M47.319 17.9441L47.8568 17.4063V23.9897C47.8568 25.0036 48.6788 25.8256 49.6927 25.8256C50.7066 25.8256 51.5286 25.0036 51.5286 23.9897V17.4064L52.0665 17.9442C52.7833 18.6612 53.9458 18.6613 54.6628 17.9442C55.3798 17.2272 55.3798 16.0648 54.6628 15.3478L50.9913 11.6762C50.2734 10.9582 49.1068 10.9637 48.3943 11.6762L44.7228 15.3478C44.0058 16.0648 44.0058 17.2272 44.7228 17.9442C45.4396 18.6612 46.6021 18.6612 47.319 17.9441Z" fill="black"/>
</g>
<defs>
<clipPath id="clip0_1_59">
<rect width="62.6667" height="62.6667" fill="white"/>
</clipPath>
</defs>
</svg>
