<svg width="300" height="75" viewBox="0 0 300 75" fill="none" xmlns="http://www.w3.org/2000/svg">
<path d="M66.9501 64.7089C68.7501 65.7089 70.7001 66.7589 70.7001 69.5589C70.7001 73.2589 67.8001 74.5089 64.5001 74.5089C62.6001 74.5089 60.9001 74.0589 60.4501 73.9589V71.9089C60.8501 72.0589 62.6001 72.8089 64.7501 72.8089C66.9501 72.8089 68.5501 71.7589 68.5501 69.8089C68.5501 67.8089 67.0501 67.0589 65.6001 66.2589L64.0501 65.4089C62.4001 64.5089 60.2501 63.5089 60.2501 60.8089C60.2501 57.7589 62.7001 56.2589 65.9501 56.2589C67.6501 56.2589 69.0001 56.6089 69.6501 56.7089V58.6589C69.2001 58.4589 67.7001 57.9089 65.8001 57.9089C63.7501 57.9089 62.4501 58.9589 62.4501 60.6089C62.4501 62.1589 64.0001 63.0089 65.4001 63.7589L66.9501 64.7089Z" fill="#00B482"/>
<path d="M75.95 56.6089H77.95V64.2589H85.25V56.6089H87.25V74.2589H85.25V65.9089H77.95V74.2589H75.95V56.6089Z" fill="#00B482"/>
<path d="M98.8001 58.4089L101.45 67.1589H96.2501L98.8001 58.4089ZM92.0001 74.2589H94.0001L95.7001 68.8089H102L103.75 74.2589H105.75L100.05 56.6089H97.6001L92.0001 74.2589Z" fill="#00B482"/>
<path d="M112.45 58.2589H113.95C116.05 58.2589 118.5 58.2589 118.5 61.2589C118.5 64.2089 116 64.7589 113.6 64.7589H112.5V58.2589H112.45ZM112.45 74.2589V66.4089H114.3C117 66.4089 117.55 67.6589 118.1 70.2089L118.95 74.2589H120.95L119.9 69.4089C119.5 67.4589 119.3 66.1589 116.85 65.5089V65.4589C118.5 65.0589 120.45 64.2089 120.45 61.0089C120.45 56.7089 116 56.5589 114.8 56.5589H110.4V74.2589H112.45Z" fill="#00B482"/>
<path d="M128.65 56.6089H126.65V74.2589H128.65V56.6089Z" fill="#00B482"/>
<path d="M135.45 56.6089H138L145.3 71.5089H145.35V56.6089H147.25V74.2589H144.65L137.4 59.4089H137.35V74.2589H135.45V56.6089Z" fill="#00B482"/>
<path d="M165.2 72.8589C164.75 73.2589 162.85 74.5589 160.1 74.5589C154.5 74.5589 153.05 69.9589 153.05 64.8589C153.05 60.3589 154.8 56.3089 159.65 56.3089C163.15 56.3089 165.35 58.4589 165.35 61.4089H163.1C163.1 59.8089 162.25 57.9589 159.7 57.9589C156.1 57.9589 155.25 61.6089 155.25 64.8089C155.25 68.2589 155.85 72.8589 160 72.8589C161.8 72.8589 162.95 72.1589 163.25 71.9089V65.9589H159.2V64.3089H165.25V72.8589" fill="#00B482"/>
<path d="M180.3 56.6089H188.85V58.2589H182.3V64.2089H188.55V65.8589H182.3V72.6089H189.1V74.2589H180.3V56.6089Z" fill="#00B482"/>
<path d="M197.85 65.0089L192.85 56.6089H195L198.95 63.2089L202.85 56.6089H205.05L200.05 65.0089L205.6 74.2589H203.4L198.95 66.8589L194.5 74.2589H192.3L197.85 65.0089Z" fill="#00B482"/>
<path d="M212.05 58.2589H213.7C215.15 58.2589 217.75 58.2589 217.75 61.5089C217.75 63.5589 216.7 64.7089 214.2 64.7089H212.05V58.2589ZM210.05 74.2589H212.05V66.3589H214.15C217.4 66.3589 219.75 65.0089 219.75 61.4589C219.75 56.6089 215.55 56.5589 214.15 56.5589H210.05V74.2589Z" fill="#00B482"/>
<path d="M224.7 56.6089H233.25V58.2589H226.7V64.2089H232.95V65.8589H226.7V72.6089H233.5V74.2589H224.7V56.6089Z" fill="#00B482"/>
<path d="M240.85 58.2589H242.35C244.45 58.2589 246.9 58.2589 246.9 61.2589C246.9 64.2089 244.4 64.7589 242 64.7589H240.85V58.2589ZM238.85 74.2589H240.85V66.4089H242.7C245.4 66.4089 245.95 67.6589 246.5 70.2089L247.35 74.2589H249.35L248.3 69.4089C247.9 67.4589 247.7 66.1589 245.25 65.5089V65.4589C246.9 65.0589 248.85 64.2089 248.85 61.0089C248.85 56.7089 244.4 56.5589 243.2 56.5589H238.85V74.2589Z" fill="#00B482"/>
<path d="M256.95 58.2589H252.75V56.6089H263.2V58.2589H258.95V74.2589H256.95V58.2589Z" fill="#00B482"/>
<path d="M269.75 56.6089H267.75V74.2589H269.75V56.6089Z" fill="#00B482"/>
<path d="M282.15 64.7089C283.95 65.7089 285.9 66.7589 285.9 69.5589C285.9 73.2589 283 74.5089 279.7 74.5089C277.8 74.5089 276.1 74.0589 275.65 73.9589V71.9089C276.05 72.0589 277.8 72.8089 279.95 72.8089C282.15 72.8089 283.75 71.7589 283.75 69.8089C283.75 67.8089 282.25 67.0589 280.8 66.2589L279.25 65.4089C277.6 64.5089 275.45 63.5089 275.45 60.8089C275.45 57.7589 277.9 56.2589 281.15 56.2589C282.85 56.2589 284.2 56.6089 284.85 56.7089V58.6589C284.4 58.4589 282.9 57.9089 281 57.9089C279 57.9089 277.65 58.9589 277.65 60.6089C277.65 62.1589 279.2 63.0089 280.6 63.7589L282.15 64.7089Z" fill="#00B482"/>
<path d="M291.2 56.6089H299.75V58.2589H293.2V64.2089H299.45V65.8589H293.2V72.6089H300V74.2589H291.2V56.6089Z" fill="#00B482"/>
<path d="M82.65 6.05894C91.65 6.05894 92 13.7589 92 13.7589C92 21.8589 85.1 21.8089 85.1 21.8089C95.1 21.8089 94.85 31.2089 94.85 31.2089C94.85 42.2089 81.6 41.7089 81.6 41.7089H57.65C59.6 41.7089 60.25 38.5589 60.25 38.5589V9.50894C60.25 6.90894 57.65 6.05894 57.65 6.05894H82.65ZM71.6 12.2589V35.4589H78.3C78.3 35.4589 83.9 35.4589 83.9 30.4589C83.9 30.4589 83.3 26.0089 73.05 21.6589H77.35C77.35 21.6589 82.05 21.9089 82.05 16.8589C82.05 11.6589 76.95 12.3089 76.95 12.3089L71.6 12.2589Z" fill="#00B482"/>
<path d="M25 6.05894C34 6.05894 34.35 13.7589 34.35 13.7589C34.35 21.8589 27.45 21.8089 27.45 21.8089C37.45 21.8089 37.2 31.2089 37.2 31.2089C37.2 42.2089 23.95 41.7089 23.95 41.7089H0C1.95 41.7089 2.6 38.5589 2.6 38.5589V9.50894C2.6 6.90894 0 6.05894 0 6.05894H25ZM13.95 12.2589V35.4589H20.65C20.65 35.4589 26.25 35.4589 26.25 30.4589C26.25 30.4589 25.65 26.0089 15.4 21.6589H19.7C19.7 21.6589 24.4 21.9089 24.4 16.8589C24.4 11.6589 19.3 12.3089 19.3 12.3089L13.95 12.2589Z" fill="#00B482"/>
<path d="M96.9499 6.05891C96.9499 6.05891 100.15 6.60892 100.15 9.40892V38.5589C100.15 38.5589 99.5499 41.7089 96.9499 41.7089H111.55V12.3089H117.45C117.45 12.3089 122.65 12.4089 122.65 17.9089C122.65 23.4089 117.9 23.5089 117.9 23.5089H112.7C112.7 23.5089 114.95 25.3589 117.8 31.7089C120.65 38.0589 120.65 38.0589 120.75 38.1589C120.85 38.2589 122.7 41.7089 125 41.7089H136.35C136.35 41.7089 133.85 41.0089 132.4 37.6089C130.9 34.2089 129.2 30.1589 129.2 30.1589C129.2 30.1589 127.65 25.2589 123.6 25.2589H123.35C123.35 25.2589 133.35 25.7089 133.35 15.1589C133.35 4.60891 118.7 6.00891 118.7 6.00891H96.9499" fill="#00B482"/>
<path d="M167.95 41.7089H182.05C182.05 41.7089 180.05 41.2589 178.5 37.1589C176.95 33.0589 168.65 9.80891 168.65 9.80891C168.65 9.80891 167.85 6.10891 164.7 6.10891H148.5C148.5 6.10891 152.15 6.85891 151.2 9.60891C150.7 11.1589 147.8 18.8089 145.4 25.2089H141.75C139.35 25.2089 138.95 27.0089 138.05 29.1589C137.1 31.3089 135.05 33.2089 135.05 33.2089C136.75 32.2089 140.55 32.6089 140.55 32.6089C140.55 32.6089 141.4 32.6089 142.65 32.6589C142.2 33.8089 141.95 34.5089 141.95 34.5089C141.95 34.5089 139.15 40.8089 137.9 41.8589H148.75L152.15 32.7089C153.05 32.7089 153.8 32.6589 154.25 32.6589C156.75 32.5089 157.5 31.1089 158.1 29.4089C158.7 27.7089 161.05 25.0589 161.05 25.0589C159.2 25.6089 155.4 25.3089 155.4 25.3089H154.85L158.4 15.7089L167.95 41.7089Z" fill="#00B482"/>
<path d="M177.75 6.05894C177.75 6.05894 181.55 6.35895 181.55 9.40895V28.7089C181.55 28.7089 180.85 42.2589 198.45 42.2589C216.05 42.2589 215.5 29.5589 215.5 29.5589V9.70893C215.5 9.70893 214.7 6.05894 211.7 6.05894H203.35C203.35 6.05894 206.7 6.80893 206.7 9.70893V29.1589C206.7 29.1589 207 35.2089 199.85 35.2089C199.85 35.2089 193.65 35.3589 193.65 28.7589V9.70893C193.65 9.70893 193.4 6.05894 190 6.05894H177.75Z" fill="#00B482"/>
<path d="M219.45 6.05891C219.45 6.05891 222.7 7.30892 222.7 9.85892V38.0589C222.7 38.0589 222.25 41.7089 219.45 41.7089H231.35V23.1089L245.7 38.9089C245.7 38.9089 247.1 41.7089 251.75 41.7089H257.2V10.0589C257.2 10.0589 256.95 6.00891 253.1 6.00891H245.2C245.2 6.00891 248.3 6.85891 248.3 9.55891V24.6589L231.85 5.95891H219.45" fill="#00B482"/>
<path d="M47.4999 0.758911H46.0499V46.1089H47.4999V0.758911Z" fill="#00B482"/>
</svg>
